G04 #@! TF.GenerationSoftware,KiCad,Pcbnew,(5.1.10)-1*
G04 #@! TF.CreationDate,2022-03-26T09:57:36-04:00*
G04 #@! TF.ProjectId,Microphone Amplifier,4d696372-6f70-4686-9f6e-6520416d706c,rev?*
G04 #@! TF.SameCoordinates,Original*
G04 #@! TF.FileFunction,Legend,Top*
G04 #@! TF.FilePolarity,Positive*
%FSLAX46Y46*%
G04 Gerber Fmt 4.6, Leading zero omitted, Abs format (unit mm)*
G04 Created by KiCad (PCBNEW (5.1.10)-1) date 2022-03-26 09:57:36*
%MOMM*%
%LPD*%
G01*
G04 APERTURE LIST*
%ADD10C,0.150000*%
%ADD11C,0.120000*%
%ADD12C,0.127000*%
%ADD13C,0.300000*%
%ADD14C,1.600000*%
%ADD15R,1.600000X1.600000*%
%ADD16O,1.600000X1.600000*%
%ADD17C,1.378000*%
%ADD18R,1.378000X1.378000*%
%ADD19O,1.700000X1.700000*%
%ADD20R,1.700000X1.700000*%
G04 APERTURE END LIST*
D10*
X101359404Y-122200000D02*
X101264166Y-122152380D01*
X101121309Y-122152380D01*
X100978452Y-122200000D01*
X100883214Y-122295238D01*
X100835595Y-122390476D01*
X100787976Y-122580952D01*
X100787976Y-122723809D01*
X100835595Y-122914285D01*
X100883214Y-123009523D01*
X100978452Y-123104761D01*
X101121309Y-123152380D01*
X101216547Y-123152380D01*
X101359404Y-123104761D01*
X101407023Y-123057142D01*
X101407023Y-122723809D01*
X101216547Y-122723809D01*
X101835595Y-123152380D02*
X101835595Y-122152380D01*
X102407023Y-123152380D01*
X102407023Y-122152380D01*
X102883214Y-123152380D02*
X102883214Y-122152380D01*
X103121309Y-122152380D01*
X103264166Y-122200000D01*
X103359404Y-122295238D01*
X103407023Y-122390476D01*
X103454642Y-122580952D01*
X103454642Y-122723809D01*
X103407023Y-122914285D01*
X103359404Y-123009523D01*
X103264166Y-123104761D01*
X103121309Y-123152380D01*
X102883214Y-123152380D01*
X100787976Y-120564761D02*
X100930833Y-120612380D01*
X101168928Y-120612380D01*
X101264166Y-120564761D01*
X101311785Y-120517142D01*
X101359404Y-120421904D01*
X101359404Y-120326666D01*
X101311785Y-120231428D01*
X101264166Y-120183809D01*
X101168928Y-120136190D01*
X100978452Y-120088571D01*
X100883214Y-120040952D01*
X100835595Y-119993333D01*
X100787976Y-119898095D01*
X100787976Y-119802857D01*
X100835595Y-119707619D01*
X100883214Y-119660000D01*
X100978452Y-119612380D01*
X101216547Y-119612380D01*
X101359404Y-119660000D01*
X101787976Y-120612380D02*
X101787976Y-119612380D01*
X102026071Y-119612380D01*
X102168928Y-119660000D01*
X102264166Y-119755238D01*
X102311785Y-119850476D01*
X102359404Y-120040952D01*
X102359404Y-120183809D01*
X102311785Y-120374285D01*
X102264166Y-120469523D01*
X102168928Y-120564761D01*
X102026071Y-120612380D01*
X101787976Y-120612380D01*
X102787976Y-120612380D02*
X102787976Y-119612380D01*
X101407023Y-117977142D02*
X101359404Y-118024761D01*
X101216547Y-118072380D01*
X101121309Y-118072380D01*
X100978452Y-118024761D01*
X100883214Y-117929523D01*
X100835595Y-117834285D01*
X100787976Y-117643809D01*
X100787976Y-117500952D01*
X100835595Y-117310476D01*
X100883214Y-117215238D01*
X100978452Y-117120000D01*
X101121309Y-117072380D01*
X101216547Y-117072380D01*
X101359404Y-117120000D01*
X101407023Y-117167619D01*
X102311785Y-118072380D02*
X101835595Y-118072380D01*
X101835595Y-117072380D01*
X102645119Y-118072380D02*
X102645119Y-117072380D01*
X103216547Y-118072380D02*
X102787976Y-117500952D01*
X103216547Y-117072380D02*
X102645119Y-117643809D01*
X100597500Y-114165000D02*
X101597500Y-114165000D01*
X101407023Y-115437142D02*
X101359404Y-115484761D01*
X101216547Y-115532380D01*
X101121309Y-115532380D01*
X100978452Y-115484761D01*
X100883214Y-115389523D01*
X100835595Y-115294285D01*
X100787976Y-115103809D01*
X100787976Y-114960952D01*
X100835595Y-114770476D01*
X100883214Y-114675238D01*
X100978452Y-114580000D01*
X101121309Y-114532380D01*
X101216547Y-114532380D01*
X101359404Y-114580000D01*
X101407023Y-114627619D01*
X101597500Y-114165000D02*
X102549880Y-114165000D01*
X101787976Y-115484761D02*
X101930833Y-115532380D01*
X102168928Y-115532380D01*
X102264166Y-115484761D01*
X102311785Y-115437142D01*
X102359404Y-115341904D01*
X102359404Y-115246666D01*
X102311785Y-115151428D01*
X102264166Y-115103809D01*
X102168928Y-115056190D01*
X101978452Y-115008571D01*
X101883214Y-114960952D01*
X101835595Y-114913333D01*
X101787976Y-114818095D01*
X101787976Y-114722857D01*
X101835595Y-114627619D01*
X101883214Y-114580000D01*
X101978452Y-114532380D01*
X102216547Y-114532380D01*
X102359404Y-114580000D01*
X101026071Y-111992380D02*
X101216547Y-111992380D01*
X101311785Y-112040000D01*
X101407023Y-112135238D01*
X101454642Y-112325714D01*
X101454642Y-112659047D01*
X101407023Y-112849523D01*
X101311785Y-112944761D01*
X101216547Y-112992380D01*
X101026071Y-112992380D01*
X100930833Y-112944761D01*
X100835595Y-112849523D01*
X100787976Y-112659047D01*
X100787976Y-112325714D01*
X100835595Y-112135238D01*
X100930833Y-112040000D01*
X101026071Y-111992380D01*
X101883214Y-111992380D02*
X101883214Y-112801904D01*
X101930833Y-112897142D01*
X101978452Y-112944761D01*
X102073690Y-112992380D01*
X102264166Y-112992380D01*
X102359404Y-112944761D01*
X102407023Y-112897142D01*
X102454642Y-112801904D01*
X102454642Y-111992380D01*
X102787976Y-111992380D02*
X103359404Y-111992380D01*
X103073690Y-112992380D02*
X103073690Y-111992380D01*
X100692738Y-109452380D02*
X101026071Y-110452380D01*
X101359404Y-109452380D01*
X102264166Y-110357142D02*
X102216547Y-110404761D01*
X102073690Y-110452380D01*
X101978452Y-110452380D01*
X101835595Y-110404761D01*
X101740357Y-110309523D01*
X101692738Y-110214285D01*
X101645119Y-110023809D01*
X101645119Y-109880952D01*
X101692738Y-109690476D01*
X101740357Y-109595238D01*
X101835595Y-109500000D01*
X101978452Y-109452380D01*
X102073690Y-109452380D01*
X102216547Y-109500000D01*
X102264166Y-109547619D01*
X103264166Y-110357142D02*
X103216547Y-110404761D01*
X103073690Y-110452380D01*
X102978452Y-110452380D01*
X102835595Y-110404761D01*
X102740357Y-110309523D01*
X102692738Y-110214285D01*
X102645119Y-110023809D01*
X102645119Y-109880952D01*
X102692738Y-109690476D01*
X102740357Y-109595238D01*
X102835595Y-109500000D01*
X102978452Y-109452380D01*
X103073690Y-109452380D01*
X103216547Y-109500000D01*
X103264166Y-109547619D01*
X137335595Y-124127380D02*
X137335595Y-123127380D01*
X137668928Y-123841666D01*
X138002261Y-123127380D01*
X138002261Y-124127380D01*
X138478452Y-124127380D02*
X138478452Y-123460714D01*
X138478452Y-123127380D02*
X138430833Y-123175000D01*
X138478452Y-123222619D01*
X138526071Y-123175000D01*
X138478452Y-123127380D01*
X138478452Y-123222619D01*
X139383214Y-124079761D02*
X139287976Y-124127380D01*
X139097500Y-124127380D01*
X139002261Y-124079761D01*
X138954642Y-124032142D01*
X138907023Y-123936904D01*
X138907023Y-123651190D01*
X138954642Y-123555952D01*
X139002261Y-123508333D01*
X139097500Y-123460714D01*
X139287976Y-123460714D01*
X139383214Y-123508333D01*
X139811785Y-124127380D02*
X139811785Y-123460714D01*
X139811785Y-123651190D02*
X139859404Y-123555952D01*
X139907023Y-123508333D01*
X140002261Y-123460714D01*
X140097500Y-123460714D01*
X140573690Y-124127380D02*
X140478452Y-124079761D01*
X140430833Y-124032142D01*
X140383214Y-123936904D01*
X140383214Y-123651190D01*
X140430833Y-123555952D01*
X140478452Y-123508333D01*
X140573690Y-123460714D01*
X140716547Y-123460714D01*
X140811785Y-123508333D01*
X140859404Y-123555952D01*
X140907023Y-123651190D01*
X140907023Y-123936904D01*
X140859404Y-124032142D01*
X140811785Y-124079761D01*
X140716547Y-124127380D01*
X140573690Y-124127380D01*
X141335595Y-123460714D02*
X141335595Y-124460714D01*
X141335595Y-123508333D02*
X141430833Y-123460714D01*
X141621309Y-123460714D01*
X141716547Y-123508333D01*
X141764166Y-123555952D01*
X141811785Y-123651190D01*
X141811785Y-123936904D01*
X141764166Y-124032142D01*
X141716547Y-124079761D01*
X141621309Y-124127380D01*
X141430833Y-124127380D01*
X141335595Y-124079761D01*
X142240357Y-124127380D02*
X142240357Y-123127380D01*
X142668928Y-124127380D02*
X142668928Y-123603571D01*
X142621309Y-123508333D01*
X142526071Y-123460714D01*
X142383214Y-123460714D01*
X142287976Y-123508333D01*
X142240357Y-123555952D01*
X143287976Y-124127380D02*
X143192738Y-124079761D01*
X143145119Y-124032142D01*
X143097500Y-123936904D01*
X143097500Y-123651190D01*
X143145119Y-123555952D01*
X143192738Y-123508333D01*
X143287976Y-123460714D01*
X143430833Y-123460714D01*
X143526071Y-123508333D01*
X143573690Y-123555952D01*
X143621309Y-123651190D01*
X143621309Y-123936904D01*
X143573690Y-124032142D01*
X143526071Y-124079761D01*
X143430833Y-124127380D01*
X143287976Y-124127380D01*
X144049880Y-123460714D02*
X144049880Y-124127380D01*
X144049880Y-123555952D02*
X144097500Y-123508333D01*
X144192738Y-123460714D01*
X144335595Y-123460714D01*
X144430833Y-123508333D01*
X144478452Y-123603571D01*
X144478452Y-124127380D01*
X145335595Y-124079761D02*
X145240357Y-124127380D01*
X145049880Y-124127380D01*
X144954642Y-124079761D01*
X144907023Y-123984523D01*
X144907023Y-123603571D01*
X144954642Y-123508333D01*
X145049880Y-123460714D01*
X145240357Y-123460714D01*
X145335595Y-123508333D01*
X145383214Y-123603571D01*
X145383214Y-123698809D01*
X144907023Y-123794047D01*
X146526071Y-123841666D02*
X147002261Y-123841666D01*
X146430833Y-124127380D02*
X146764166Y-123127380D01*
X147097500Y-124127380D01*
X147430833Y-124127380D02*
X147430833Y-123460714D01*
X147430833Y-123555952D02*
X147478452Y-123508333D01*
X147573690Y-123460714D01*
X147716547Y-123460714D01*
X147811785Y-123508333D01*
X147859404Y-123603571D01*
X147859404Y-124127380D01*
X147859404Y-123603571D02*
X147907023Y-123508333D01*
X148002261Y-123460714D01*
X148145119Y-123460714D01*
X148240357Y-123508333D01*
X148287976Y-123603571D01*
X148287976Y-124127380D01*
X148764166Y-123460714D02*
X148764166Y-124460714D01*
X148764166Y-123508333D02*
X148859404Y-123460714D01*
X149049880Y-123460714D01*
X149145119Y-123508333D01*
X149192738Y-123555952D01*
X149240357Y-123651190D01*
X149240357Y-123936904D01*
X149192738Y-124032142D01*
X149145119Y-124079761D01*
X149049880Y-124127380D01*
X148859404Y-124127380D01*
X148764166Y-124079761D01*
X149811785Y-124127380D02*
X149716547Y-124079761D01*
X149668928Y-123984523D01*
X149668928Y-123127380D01*
X150192738Y-124127380D02*
X150192738Y-123460714D01*
X150192738Y-123127380D02*
X150145119Y-123175000D01*
X150192738Y-123222619D01*
X150240357Y-123175000D01*
X150192738Y-123127380D01*
X150192738Y-123222619D01*
X150526071Y-123460714D02*
X150907023Y-123460714D01*
X150668928Y-124127380D02*
X150668928Y-123270238D01*
X150716547Y-123175000D01*
X150811785Y-123127380D01*
X150907023Y-123127380D01*
X151240357Y-124127380D02*
X151240357Y-123460714D01*
X151240357Y-123127380D02*
X151192738Y-123175000D01*
X151240357Y-123222619D01*
X151287976Y-123175000D01*
X151240357Y-123127380D01*
X151240357Y-123222619D01*
X152097500Y-124079761D02*
X152002261Y-124127380D01*
X151811785Y-124127380D01*
X151716547Y-124079761D01*
X151668928Y-123984523D01*
X151668928Y-123603571D01*
X151716547Y-123508333D01*
X151811785Y-123460714D01*
X152002261Y-123460714D01*
X152097500Y-123508333D01*
X152145119Y-123603571D01*
X152145119Y-123698809D01*
X151668928Y-123794047D01*
X152573690Y-124127380D02*
X152573690Y-123460714D01*
X152573690Y-123651190D02*
X152621309Y-123555952D01*
X152668928Y-123508333D01*
X152764166Y-123460714D01*
X152859404Y-123460714D01*
X137907023Y-125777380D02*
X137573690Y-125301190D01*
X137335595Y-125777380D02*
X137335595Y-124777380D01*
X137716547Y-124777380D01*
X137811785Y-124825000D01*
X137859404Y-124872619D01*
X137907023Y-124967857D01*
X137907023Y-125110714D01*
X137859404Y-125205952D01*
X137811785Y-125253571D01*
X137716547Y-125301190D01*
X137335595Y-125301190D01*
X138716547Y-125729761D02*
X138621309Y-125777380D01*
X138430833Y-125777380D01*
X138335595Y-125729761D01*
X138287976Y-125634523D01*
X138287976Y-125253571D01*
X138335595Y-125158333D01*
X138430833Y-125110714D01*
X138621309Y-125110714D01*
X138716547Y-125158333D01*
X138764166Y-125253571D01*
X138764166Y-125348809D01*
X138287976Y-125444047D01*
X139097500Y-125110714D02*
X139335595Y-125777380D01*
X139573690Y-125110714D01*
X139954642Y-125682142D02*
X140002261Y-125729761D01*
X139954642Y-125777380D01*
X139907023Y-125729761D01*
X139954642Y-125682142D01*
X139954642Y-125777380D01*
X141145119Y-125491666D02*
X141621309Y-125491666D01*
X141049880Y-125777380D02*
X141383214Y-124777380D01*
X141716547Y-125777380D01*
X142240357Y-124777380D02*
X142335595Y-124777380D01*
X142430833Y-124825000D01*
X142478452Y-124872619D01*
X142526071Y-124967857D01*
X142573690Y-125158333D01*
X142573690Y-125396428D01*
X142526071Y-125586904D01*
X142478452Y-125682142D01*
X142430833Y-125729761D01*
X142335595Y-125777380D01*
X142240357Y-125777380D01*
X142145119Y-125729761D01*
X142097500Y-125682142D01*
X142049880Y-125586904D01*
X142002261Y-125396428D01*
X142002261Y-125158333D01*
X142049880Y-124967857D01*
X142097500Y-124872619D01*
X142145119Y-124825000D01*
X142240357Y-124777380D01*
D11*
X158620000Y-121500000D02*
G75*
G03*
X158620000Y-121500000I-2620000J0D01*
G01*
X154960000Y-121500000D02*
X153420000Y-121500000D01*
X158580000Y-121500000D02*
X157040000Y-121500000D01*
X154960000Y-121540000D02*
X153420000Y-121540000D01*
X158580000Y-121540000D02*
X157040000Y-121540000D01*
X158579000Y-121580000D02*
X157040000Y-121580000D01*
X154960000Y-121580000D02*
X153421000Y-121580000D01*
X158578000Y-121620000D02*
X157040000Y-121620000D01*
X154960000Y-121620000D02*
X153422000Y-121620000D01*
X158576000Y-121660000D02*
X157040000Y-121660000D01*
X154960000Y-121660000D02*
X153424000Y-121660000D01*
X158573000Y-121700000D02*
X157040000Y-121700000D01*
X154960000Y-121700000D02*
X153427000Y-121700000D01*
X158569000Y-121740000D02*
X157040000Y-121740000D01*
X154960000Y-121740000D02*
X153431000Y-121740000D01*
X158565000Y-121780000D02*
X157040000Y-121780000D01*
X154960000Y-121780000D02*
X153435000Y-121780000D01*
X158561000Y-121820000D02*
X157040000Y-121820000D01*
X154960000Y-121820000D02*
X153439000Y-121820000D01*
X158556000Y-121860000D02*
X157040000Y-121860000D01*
X154960000Y-121860000D02*
X153444000Y-121860000D01*
X158550000Y-121900000D02*
X157040000Y-121900000D01*
X154960000Y-121900000D02*
X153450000Y-121900000D01*
X158543000Y-121940000D02*
X157040000Y-121940000D01*
X154960000Y-121940000D02*
X153457000Y-121940000D01*
X158536000Y-121980000D02*
X157040000Y-121980000D01*
X154960000Y-121980000D02*
X153464000Y-121980000D01*
X158528000Y-122020000D02*
X157040000Y-122020000D01*
X154960000Y-122020000D02*
X153472000Y-122020000D01*
X158520000Y-122060000D02*
X157040000Y-122060000D01*
X154960000Y-122060000D02*
X153480000Y-122060000D01*
X158511000Y-122100000D02*
X157040000Y-122100000D01*
X154960000Y-122100000D02*
X153489000Y-122100000D01*
X158501000Y-122140000D02*
X157040000Y-122140000D01*
X154960000Y-122140000D02*
X153499000Y-122140000D01*
X158491000Y-122180000D02*
X157040000Y-122180000D01*
X154960000Y-122180000D02*
X153509000Y-122180000D01*
X158480000Y-122221000D02*
X157040000Y-122221000D01*
X154960000Y-122221000D02*
X153520000Y-122221000D01*
X158468000Y-122261000D02*
X157040000Y-122261000D01*
X154960000Y-122261000D02*
X153532000Y-122261000D01*
X158455000Y-122301000D02*
X157040000Y-122301000D01*
X154960000Y-122301000D02*
X153545000Y-122301000D01*
X158442000Y-122341000D02*
X157040000Y-122341000D01*
X154960000Y-122341000D02*
X153558000Y-122341000D01*
X158428000Y-122381000D02*
X157040000Y-122381000D01*
X154960000Y-122381000D02*
X153572000Y-122381000D01*
X158414000Y-122421000D02*
X157040000Y-122421000D01*
X154960000Y-122421000D02*
X153586000Y-122421000D01*
X158398000Y-122461000D02*
X157040000Y-122461000D01*
X154960000Y-122461000D02*
X153602000Y-122461000D01*
X158382000Y-122501000D02*
X157040000Y-122501000D01*
X154960000Y-122501000D02*
X153618000Y-122501000D01*
X158365000Y-122541000D02*
X157040000Y-122541000D01*
X154960000Y-122541000D02*
X153635000Y-122541000D01*
X158348000Y-122581000D02*
X157040000Y-122581000D01*
X154960000Y-122581000D02*
X153652000Y-122581000D01*
X158329000Y-122621000D02*
X157040000Y-122621000D01*
X154960000Y-122621000D02*
X153671000Y-122621000D01*
X158310000Y-122661000D02*
X157040000Y-122661000D01*
X154960000Y-122661000D02*
X153690000Y-122661000D01*
X158290000Y-122701000D02*
X157040000Y-122701000D01*
X154960000Y-122701000D02*
X153710000Y-122701000D01*
X158268000Y-122741000D02*
X157040000Y-122741000D01*
X154960000Y-122741000D02*
X153732000Y-122741000D01*
X158247000Y-122781000D02*
X157040000Y-122781000D01*
X154960000Y-122781000D02*
X153753000Y-122781000D01*
X158224000Y-122821000D02*
X157040000Y-122821000D01*
X154960000Y-122821000D02*
X153776000Y-122821000D01*
X158200000Y-122861000D02*
X157040000Y-122861000D01*
X154960000Y-122861000D02*
X153800000Y-122861000D01*
X158175000Y-122901000D02*
X157040000Y-122901000D01*
X154960000Y-122901000D02*
X153825000Y-122901000D01*
X158149000Y-122941000D02*
X157040000Y-122941000D01*
X154960000Y-122941000D02*
X153851000Y-122941000D01*
X158122000Y-122981000D02*
X157040000Y-122981000D01*
X154960000Y-122981000D02*
X153878000Y-122981000D01*
X158095000Y-123021000D02*
X157040000Y-123021000D01*
X154960000Y-123021000D02*
X153905000Y-123021000D01*
X158065000Y-123061000D02*
X157040000Y-123061000D01*
X154960000Y-123061000D02*
X153935000Y-123061000D01*
X158035000Y-123101000D02*
X157040000Y-123101000D01*
X154960000Y-123101000D02*
X153965000Y-123101000D01*
X158004000Y-123141000D02*
X157040000Y-123141000D01*
X154960000Y-123141000D02*
X153996000Y-123141000D01*
X157971000Y-123181000D02*
X157040000Y-123181000D01*
X154960000Y-123181000D02*
X154029000Y-123181000D01*
X157937000Y-123221000D02*
X157040000Y-123221000D01*
X154960000Y-123221000D02*
X154063000Y-123221000D01*
X157901000Y-123261000D02*
X157040000Y-123261000D01*
X154960000Y-123261000D02*
X154099000Y-123261000D01*
X157864000Y-123301000D02*
X157040000Y-123301000D01*
X154960000Y-123301000D02*
X154136000Y-123301000D01*
X157826000Y-123341000D02*
X157040000Y-123341000D01*
X154960000Y-123341000D02*
X154174000Y-123341000D01*
X157785000Y-123381000D02*
X157040000Y-123381000D01*
X154960000Y-123381000D02*
X154215000Y-123381000D01*
X157743000Y-123421000D02*
X157040000Y-123421000D01*
X154960000Y-123421000D02*
X154257000Y-123421000D01*
X157699000Y-123461000D02*
X157040000Y-123461000D01*
X154960000Y-123461000D02*
X154301000Y-123461000D01*
X157653000Y-123501000D02*
X157040000Y-123501000D01*
X154960000Y-123501000D02*
X154347000Y-123501000D01*
X157605000Y-123541000D02*
X154395000Y-123541000D01*
X157554000Y-123581000D02*
X154446000Y-123581000D01*
X157500000Y-123621000D02*
X154500000Y-123621000D01*
X157443000Y-123661000D02*
X154557000Y-123661000D01*
X157383000Y-123701000D02*
X154617000Y-123701000D01*
X157319000Y-123741000D02*
X154681000Y-123741000D01*
X157251000Y-123781000D02*
X154749000Y-123781000D01*
X157178000Y-123821000D02*
X154822000Y-123821000D01*
X157098000Y-123861000D02*
X154902000Y-123861000D01*
X157011000Y-123901000D02*
X154989000Y-123901000D01*
X156915000Y-123941000D02*
X155085000Y-123941000D01*
X156805000Y-123981000D02*
X155195000Y-123981000D01*
X156677000Y-124021000D02*
X155323000Y-124021000D01*
X156518000Y-124061000D02*
X155482000Y-124061000D01*
X156284000Y-124101000D02*
X155716000Y-124101000D01*
X157475000Y-118695225D02*
X157475000Y-119195225D01*
X157725000Y-118945225D02*
X157225000Y-118945225D01*
X108810000Y-114670000D02*
X107160000Y-114670000D01*
X107160000Y-114670000D02*
X107160000Y-124950000D01*
X107160000Y-124950000D02*
X112460000Y-124950000D01*
X112460000Y-124950000D02*
X112460000Y-114670000D01*
X112460000Y-114670000D02*
X110810000Y-114670000D01*
X110810000Y-114670000D02*
G75*
G02*
X108810000Y-114670000I-1000000J0D01*
G01*
X120810000Y-114670000D02*
X119160000Y-114670000D01*
X119160000Y-114670000D02*
X119160000Y-124950000D01*
X119160000Y-124950000D02*
X124460000Y-124950000D01*
X124460000Y-124950000D02*
X124460000Y-114670000D01*
X124460000Y-114670000D02*
X122810000Y-114670000D01*
X122810000Y-114670000D02*
G75*
G02*
X120810000Y-114670000I-1000000J0D01*
G01*
X140040000Y-119960000D02*
X140040000Y-119630000D01*
X140040000Y-119630000D02*
X146580000Y-119630000D01*
X146580000Y-119630000D02*
X146580000Y-119960000D01*
X140040000Y-122040000D02*
X140040000Y-122370000D01*
X140040000Y-122370000D02*
X146580000Y-122370000D01*
X146580000Y-122370000D02*
X146580000Y-122040000D01*
X124960000Y-111540000D02*
X124960000Y-111870000D01*
X124960000Y-111870000D02*
X118420000Y-111870000D01*
X118420000Y-111870000D02*
X118420000Y-111540000D01*
X124960000Y-109460000D02*
X124960000Y-109130000D01*
X124960000Y-109130000D02*
X118420000Y-109130000D01*
X118420000Y-109130000D02*
X118420000Y-109460000D01*
X140040000Y-114960000D02*
X140040000Y-114630000D01*
X140040000Y-114630000D02*
X146580000Y-114630000D01*
X146580000Y-114630000D02*
X146580000Y-114960000D01*
X140040000Y-117040000D02*
X140040000Y-117370000D01*
X140040000Y-117370000D02*
X146580000Y-117370000D01*
X146580000Y-117370000D02*
X146580000Y-117040000D01*
X128960000Y-123080000D02*
X128630000Y-123080000D01*
X128630000Y-123080000D02*
X128630000Y-116540000D01*
X128630000Y-116540000D02*
X128960000Y-116540000D01*
X131040000Y-123080000D02*
X131370000Y-123080000D01*
X131370000Y-123080000D02*
X131370000Y-116540000D01*
X131370000Y-116540000D02*
X131040000Y-116540000D01*
X136040000Y-116540000D02*
X136370000Y-116540000D01*
X136370000Y-116540000D02*
X136370000Y-123080000D01*
X136370000Y-123080000D02*
X136040000Y-123080000D01*
X133960000Y-116540000D02*
X133630000Y-116540000D01*
X133630000Y-116540000D02*
X133630000Y-123080000D01*
X133630000Y-123080000D02*
X133960000Y-123080000D01*
D12*
X160850000Y-112000000D02*
G75*
G03*
X160850000Y-112000000I-4850000J0D01*
G01*
D13*
X161543000Y-113741000D02*
G75*
G03*
X161543000Y-113741000I-100000J0D01*
G01*
D11*
X136410000Y-111830000D02*
X136410000Y-109170000D01*
X131270000Y-111830000D02*
X136410000Y-111830000D01*
X131270000Y-109170000D02*
X136410000Y-109170000D01*
X131270000Y-111830000D02*
X131270000Y-109170000D01*
X130000000Y-111830000D02*
X128670000Y-111830000D01*
X128670000Y-111830000D02*
X128670000Y-110500000D01*
X97170000Y-123950000D02*
X99830000Y-123950000D01*
X97170000Y-111190000D02*
X97170000Y-123950000D01*
X99830000Y-111190000D02*
X99830000Y-123950000D01*
X97170000Y-111190000D02*
X99830000Y-111190000D01*
X97170000Y-109920000D02*
X97170000Y-108590000D01*
X97170000Y-108590000D02*
X98500000Y-108590000D01*
X139280000Y-108630000D02*
X146720000Y-108630000D01*
X139280000Y-112370000D02*
X146720000Y-112370000D01*
X139280000Y-108630000D02*
X139280000Y-112370000D01*
X146720000Y-108630000D02*
X146720000Y-112370000D01*
X113470000Y-112370000D02*
X106030000Y-112370000D01*
X113470000Y-108630000D02*
X106030000Y-108630000D01*
X113470000Y-112370000D02*
X113470000Y-108630000D01*
X106030000Y-112370000D02*
X106030000Y-108630000D01*
D10*
X155833333Y-125357142D02*
X155785714Y-125404761D01*
X155642857Y-125452380D01*
X155547619Y-125452380D01*
X155404761Y-125404761D01*
X155309523Y-125309523D01*
X155261904Y-125214285D01*
X155214285Y-125023809D01*
X155214285Y-124880952D01*
X155261904Y-124690476D01*
X155309523Y-124595238D01*
X155404761Y-124500000D01*
X155547619Y-124452380D01*
X155642857Y-124452380D01*
X155785714Y-124500000D01*
X155833333Y-124547619D01*
X156785714Y-125452380D02*
X156214285Y-125452380D01*
X156500000Y-125452380D02*
X156500000Y-124452380D01*
X156404761Y-124595238D01*
X156309523Y-124690476D01*
X156214285Y-124738095D01*
X109048095Y-113122380D02*
X109048095Y-113931904D01*
X109095714Y-114027142D01*
X109143333Y-114074761D01*
X109238571Y-114122380D01*
X109429047Y-114122380D01*
X109524285Y-114074761D01*
X109571904Y-114027142D01*
X109619523Y-113931904D01*
X109619523Y-113122380D01*
X110048095Y-113217619D02*
X110095714Y-113170000D01*
X110190952Y-113122380D01*
X110429047Y-113122380D01*
X110524285Y-113170000D01*
X110571904Y-113217619D01*
X110619523Y-113312857D01*
X110619523Y-113408095D01*
X110571904Y-113550952D01*
X110000476Y-114122380D01*
X110619523Y-114122380D01*
X121048095Y-113122380D02*
X121048095Y-113931904D01*
X121095714Y-114027142D01*
X121143333Y-114074761D01*
X121238571Y-114122380D01*
X121429047Y-114122380D01*
X121524285Y-114074761D01*
X121571904Y-114027142D01*
X121619523Y-113931904D01*
X121619523Y-113122380D01*
X122619523Y-114122380D02*
X122048095Y-114122380D01*
X122333809Y-114122380D02*
X122333809Y-113122380D01*
X122238571Y-113265238D01*
X122143333Y-113360476D01*
X122048095Y-113408095D01*
X143143333Y-119082380D02*
X142810000Y-118606190D01*
X142571904Y-119082380D02*
X142571904Y-118082380D01*
X142952857Y-118082380D01*
X143048095Y-118130000D01*
X143095714Y-118177619D01*
X143143333Y-118272857D01*
X143143333Y-118415714D01*
X143095714Y-118510952D01*
X143048095Y-118558571D01*
X142952857Y-118606190D01*
X142571904Y-118606190D01*
X144048095Y-118082380D02*
X143571904Y-118082380D01*
X143524285Y-118558571D01*
X143571904Y-118510952D01*
X143667142Y-118463333D01*
X143905238Y-118463333D01*
X144000476Y-118510952D01*
X144048095Y-118558571D01*
X144095714Y-118653809D01*
X144095714Y-118891904D01*
X144048095Y-118987142D01*
X144000476Y-119034761D01*
X143905238Y-119082380D01*
X143667142Y-119082380D01*
X143571904Y-119034761D01*
X143524285Y-118987142D01*
X121523333Y-108452380D02*
X121190000Y-107976190D01*
X120951904Y-108452380D02*
X120951904Y-107452380D01*
X121332857Y-107452380D01*
X121428095Y-107500000D01*
X121475714Y-107547619D01*
X121523333Y-107642857D01*
X121523333Y-107785714D01*
X121475714Y-107880952D01*
X121428095Y-107928571D01*
X121332857Y-107976190D01*
X120951904Y-107976190D01*
X122380476Y-107785714D02*
X122380476Y-108452380D01*
X122142380Y-107404761D02*
X121904285Y-108119047D01*
X122523333Y-108119047D01*
X143083333Y-113952380D02*
X142750000Y-113476190D01*
X142511904Y-113952380D02*
X142511904Y-112952380D01*
X142892857Y-112952380D01*
X142988095Y-113000000D01*
X143035714Y-113047619D01*
X143083333Y-113142857D01*
X143083333Y-113285714D01*
X143035714Y-113380952D01*
X142988095Y-113428571D01*
X142892857Y-113476190D01*
X142511904Y-113476190D01*
X143416666Y-112952380D02*
X144035714Y-112952380D01*
X143702380Y-113333333D01*
X143845238Y-113333333D01*
X143940476Y-113380952D01*
X143988095Y-113428571D01*
X144035714Y-113523809D01*
X144035714Y-113761904D01*
X143988095Y-113857142D01*
X143940476Y-113904761D01*
X143845238Y-113952380D01*
X143559523Y-113952380D01*
X143464285Y-113904761D01*
X143416666Y-113857142D01*
X128082380Y-119976666D02*
X127606190Y-120310000D01*
X128082380Y-120548095D02*
X127082380Y-120548095D01*
X127082380Y-120167142D01*
X127130000Y-120071904D01*
X127177619Y-120024285D01*
X127272857Y-119976666D01*
X127415714Y-119976666D01*
X127510952Y-120024285D01*
X127558571Y-120071904D01*
X127606190Y-120167142D01*
X127606190Y-120548095D01*
X127177619Y-119595714D02*
X127130000Y-119548095D01*
X127082380Y-119452857D01*
X127082380Y-119214761D01*
X127130000Y-119119523D01*
X127177619Y-119071904D01*
X127272857Y-119024285D01*
X127368095Y-119024285D01*
X127510952Y-119071904D01*
X128082380Y-119643333D01*
X128082380Y-119024285D01*
X132952380Y-119916666D02*
X132476190Y-120250000D01*
X132952380Y-120488095D02*
X131952380Y-120488095D01*
X131952380Y-120107142D01*
X132000000Y-120011904D01*
X132047619Y-119964285D01*
X132142857Y-119916666D01*
X132285714Y-119916666D01*
X132380952Y-119964285D01*
X132428571Y-120011904D01*
X132476190Y-120107142D01*
X132476190Y-120488095D01*
X132952380Y-118964285D02*
X132952380Y-119535714D01*
X132952380Y-119250000D02*
X131952380Y-119250000D01*
X132095238Y-119345238D01*
X132190476Y-119440476D01*
X132238095Y-119535714D01*
X154690012Y-118452541D02*
X154690012Y-117452187D01*
X155023463Y-118166725D01*
X155356915Y-117452187D01*
X155356915Y-118452541D01*
X155833274Y-118452541D02*
X155833274Y-117452187D01*
X156404905Y-118452541D02*
X155976182Y-117880910D01*
X156404905Y-117452187D02*
X155833274Y-118023817D01*
X157357623Y-118452541D02*
X156785992Y-118452541D01*
X157071807Y-118452541D02*
X157071807Y-117452187D01*
X156976536Y-117595094D01*
X156881264Y-117690366D01*
X156785992Y-117738002D01*
X132166666Y-107452380D02*
X132166666Y-108166666D01*
X132119047Y-108309523D01*
X132023809Y-108404761D01*
X131880952Y-108452380D01*
X131785714Y-108452380D01*
X132595238Y-107547619D02*
X132642857Y-107500000D01*
X132738095Y-107452380D01*
X132976190Y-107452380D01*
X133071428Y-107500000D01*
X133119047Y-107547619D01*
X133166666Y-107642857D01*
X133166666Y-107738095D01*
X133119047Y-107880952D01*
X132547619Y-108452380D01*
X133166666Y-108452380D01*
X98166666Y-107042380D02*
X98166666Y-107756666D01*
X98119047Y-107899523D01*
X98023809Y-107994761D01*
X97880952Y-108042380D01*
X97785714Y-108042380D01*
X99166666Y-108042380D02*
X98595238Y-108042380D01*
X98880952Y-108042380D02*
X98880952Y-107042380D01*
X98785714Y-107185238D01*
X98690476Y-107280476D01*
X98595238Y-107328095D01*
X142833333Y-107857142D02*
X142785714Y-107904761D01*
X142642857Y-107952380D01*
X142547619Y-107952380D01*
X142404761Y-107904761D01*
X142309523Y-107809523D01*
X142261904Y-107714285D01*
X142214285Y-107523809D01*
X142214285Y-107380952D01*
X142261904Y-107190476D01*
X142309523Y-107095238D01*
X142404761Y-107000000D01*
X142547619Y-106952380D01*
X142642857Y-106952380D01*
X142785714Y-107000000D01*
X142833333Y-107047619D01*
X143166666Y-106952380D02*
X143785714Y-106952380D01*
X143452380Y-107333333D01*
X143595238Y-107333333D01*
X143690476Y-107380952D01*
X143738095Y-107428571D01*
X143785714Y-107523809D01*
X143785714Y-107761904D01*
X143738095Y-107857142D01*
X143690476Y-107904761D01*
X143595238Y-107952380D01*
X143309523Y-107952380D01*
X143214285Y-107904761D01*
X143166666Y-107857142D01*
X109583333Y-107857142D02*
X109535714Y-107904761D01*
X109392857Y-107952380D01*
X109297619Y-107952380D01*
X109154761Y-107904761D01*
X109059523Y-107809523D01*
X109011904Y-107714285D01*
X108964285Y-107523809D01*
X108964285Y-107380952D01*
X109011904Y-107190476D01*
X109059523Y-107095238D01*
X109154761Y-107000000D01*
X109297619Y-106952380D01*
X109392857Y-106952380D01*
X109535714Y-107000000D01*
X109583333Y-107047619D01*
X109964285Y-107047619D02*
X110011904Y-107000000D01*
X110107142Y-106952380D01*
X110345238Y-106952380D01*
X110440476Y-107000000D01*
X110488095Y-107047619D01*
X110535714Y-107142857D01*
X110535714Y-107238095D01*
X110488095Y-107380952D01*
X109916666Y-107952380D01*
X110535714Y-107952380D01*
%LPC*%
D14*
X156000000Y-122500000D03*
D15*
X156000000Y-120500000D03*
D16*
X113620000Y-116000000D03*
X106000000Y-123620000D03*
X113620000Y-118540000D03*
X106000000Y-121080000D03*
X113620000Y-121080000D03*
X106000000Y-118540000D03*
X113620000Y-123620000D03*
D15*
X106000000Y-116000000D03*
D16*
X125620000Y-116000000D03*
X118000000Y-123620000D03*
X125620000Y-118540000D03*
X118000000Y-121080000D03*
X125620000Y-121080000D03*
X118000000Y-118540000D03*
X125620000Y-123620000D03*
D15*
X118000000Y-116000000D03*
D16*
X147120000Y-121000000D03*
D14*
X139500000Y-121000000D03*
D16*
X117880000Y-110500000D03*
D14*
X125500000Y-110500000D03*
D16*
X147120000Y-116000000D03*
D14*
X139500000Y-116000000D03*
D16*
X130000000Y-116000000D03*
D14*
X130000000Y-123620000D03*
D16*
X135000000Y-123620000D03*
D14*
X135000000Y-116000000D03*
D17*
X158000000Y-110730000D03*
D18*
X158000000Y-113270000D03*
D19*
X135080000Y-110500000D03*
X132540000Y-110500000D03*
D20*
X130000000Y-110500000D03*
D19*
X98500000Y-122620000D03*
X98500000Y-120080000D03*
X98500000Y-117540000D03*
X98500000Y-115000000D03*
X98500000Y-112460000D03*
D20*
X98500000Y-109920000D03*
D14*
X145500000Y-110500000D03*
X140500000Y-110500000D03*
X107250000Y-110500000D03*
X112250000Y-110500000D03*
M02*
