G04 #@! TF.GenerationSoftware,KiCad,Pcbnew,(5.1.10)-1*
G04 #@! TF.CreationDate,2022-03-26T09:57:36-04:00*
G04 #@! TF.ProjectId,Microphone Amplifier,4d696372-6f70-4686-9f6e-6520416d706c,rev?*
G04 #@! TF.SameCoordinates,Original*
G04 #@! TF.FileFunction,Copper,L1,Top*
G04 #@! TF.FilePolarity,Positive*
%FSLAX46Y46*%
G04 Gerber Fmt 4.6, Leading zero omitted, Abs format (unit mm)*
G04 Created by KiCad (PCBNEW (5.1.10)-1) date 2022-03-26 09:57:36*
%MOMM*%
%LPD*%
G01*
G04 APERTURE LIST*
G04 #@! TA.AperFunction,ComponentPad*
%ADD10C,1.600000*%
G04 #@! TD*
G04 #@! TA.AperFunction,ComponentPad*
%ADD11R,1.600000X1.600000*%
G04 #@! TD*
G04 #@! TA.AperFunction,ComponentPad*
%ADD12O,1.600000X1.600000*%
G04 #@! TD*
G04 #@! TA.AperFunction,ComponentPad*
%ADD13C,1.378000*%
G04 #@! TD*
G04 #@! TA.AperFunction,ComponentPad*
%ADD14R,1.378000X1.378000*%
G04 #@! TD*
G04 #@! TA.AperFunction,ComponentPad*
%ADD15O,1.700000X1.700000*%
G04 #@! TD*
G04 #@! TA.AperFunction,ComponentPad*
%ADD16R,1.700000X1.700000*%
G04 #@! TD*
G04 #@! TA.AperFunction,Conductor*
%ADD17C,0.750000*%
G04 #@! TD*
G04 #@! TA.AperFunction,Conductor*
%ADD18C,0.400000*%
G04 #@! TD*
G04 #@! TA.AperFunction,Conductor*
%ADD19C,0.254000*%
G04 #@! TD*
G04 #@! TA.AperFunction,Conductor*
%ADD20C,0.100000*%
G04 #@! TD*
G04 APERTURE END LIST*
D10*
X156000000Y-122500000D03*
D11*
X156000000Y-120500000D03*
D12*
X113620000Y-116000000D03*
X106000000Y-123620000D03*
X113620000Y-118540000D03*
X106000000Y-121080000D03*
X113620000Y-121080000D03*
X106000000Y-118540000D03*
X113620000Y-123620000D03*
D11*
X106000000Y-116000000D03*
D12*
X125620000Y-116000000D03*
X118000000Y-123620000D03*
X125620000Y-118540000D03*
X118000000Y-121080000D03*
X125620000Y-121080000D03*
X118000000Y-118540000D03*
X125620000Y-123620000D03*
D11*
X118000000Y-116000000D03*
D12*
X147120000Y-121000000D03*
D10*
X139500000Y-121000000D03*
D12*
X117880000Y-110500000D03*
D10*
X125500000Y-110500000D03*
D12*
X147120000Y-116000000D03*
D10*
X139500000Y-116000000D03*
D12*
X130000000Y-116000000D03*
D10*
X130000000Y-123620000D03*
D12*
X135000000Y-123620000D03*
D10*
X135000000Y-116000000D03*
D13*
X158000000Y-110730000D03*
D14*
X158000000Y-113270000D03*
D15*
X135080000Y-110500000D03*
X132540000Y-110500000D03*
D16*
X130000000Y-110500000D03*
D15*
X98500000Y-122620000D03*
X98500000Y-120080000D03*
X98500000Y-117540000D03*
X98500000Y-115000000D03*
X98500000Y-112460000D03*
D16*
X98500000Y-109920000D03*
D10*
X145500000Y-110500000D03*
X140500000Y-110500000D03*
X107250000Y-110500000D03*
X112250000Y-110500000D03*
D17*
X148620000Y-122500000D02*
X147120000Y-121000000D01*
X156000000Y-122500000D02*
X148620000Y-122500000D01*
X112250000Y-110500000D02*
X114750000Y-108000000D01*
X127500000Y-108000000D02*
X130000000Y-110500000D01*
X114750000Y-108000000D02*
X127500000Y-108000000D01*
X140500000Y-110500000D02*
X135080000Y-110500000D01*
D18*
X105000000Y-115000000D02*
X106000000Y-116000000D01*
X98500000Y-115000000D02*
X105000000Y-115000000D01*
X105000000Y-120080000D02*
X106000000Y-121080000D01*
X98500000Y-120080000D02*
X105000000Y-120080000D01*
X105000000Y-117540000D02*
X106000000Y-118540000D01*
X98500000Y-117540000D02*
X105000000Y-117540000D01*
X125500000Y-110500000D02*
X125500000Y-111000000D01*
D17*
X125500000Y-111500000D02*
X125500000Y-110500000D01*
X126500000Y-112500000D02*
X125500000Y-111500000D01*
X131500000Y-112500000D02*
X126500000Y-112500000D01*
X132540000Y-111460000D02*
X131500000Y-112500000D01*
X132540000Y-111460000D02*
X132540000Y-110500000D01*
X127370000Y-114250000D02*
X125620000Y-116000000D01*
X133250000Y-114250000D02*
X127370000Y-114250000D01*
X135000000Y-116000000D02*
X133250000Y-114250000D01*
X135000000Y-116000000D02*
X139500000Y-116000000D01*
X111120000Y-113500000D02*
X113620000Y-116000000D01*
X105250000Y-113500000D02*
X111120000Y-113500000D01*
X101670000Y-109920000D02*
X105250000Y-113500000D01*
X98500000Y-109920000D02*
X101670000Y-109920000D01*
X135000000Y-123620000D02*
X130000000Y-123620000D01*
X125620000Y-123620000D02*
X130000000Y-123620000D01*
D18*
X117880000Y-115880000D02*
X118000000Y-116000000D01*
D17*
X118000000Y-110620000D02*
X117880000Y-110500000D01*
X118000000Y-116000000D02*
X118000000Y-110620000D01*
X116000000Y-118000000D02*
X118000000Y-116000000D01*
X116000000Y-118700000D02*
X116000000Y-118000000D01*
X113620000Y-121080000D02*
X116000000Y-118700000D01*
X115500000Y-125500000D02*
X113620000Y-123620000D01*
X136131370Y-125500000D02*
X115500000Y-125500000D01*
X139500000Y-122131370D02*
X136131370Y-125500000D01*
X139500000Y-121000000D02*
X139500000Y-122131370D01*
X116040000Y-120500000D02*
X118000000Y-118540000D01*
X116000000Y-120500000D02*
X116040000Y-120500000D01*
X116000000Y-121240000D02*
X116000000Y-120500000D01*
X113620000Y-123620000D02*
X116000000Y-121240000D01*
X125620000Y-118540000D02*
X125620000Y-121080000D01*
X125620000Y-121080000D02*
X118000000Y-121080000D01*
D19*
X159096257Y-112140769D02*
X159185955Y-112177923D01*
X159262976Y-112237024D01*
X159322077Y-112314045D01*
X159359231Y-112403743D01*
X159373000Y-112508328D01*
X159373000Y-114339262D01*
X159355671Y-114456299D01*
X159305166Y-114563298D01*
X157478305Y-117303591D01*
X157469126Y-117319828D01*
X157406605Y-117452286D01*
X157395824Y-117487894D01*
X157374370Y-117632786D01*
X157373000Y-117651388D01*
X157373000Y-120991672D01*
X157359231Y-121096257D01*
X157322077Y-121185955D01*
X157262976Y-121262976D01*
X157185955Y-121322077D01*
X157096257Y-121359231D01*
X156991672Y-121373000D01*
X156896256Y-121373000D01*
X156679727Y-121228320D01*
X156418574Y-121120147D01*
X156141335Y-121065000D01*
X155858665Y-121065000D01*
X155581426Y-121120147D01*
X155320273Y-121228320D01*
X155103744Y-121373000D01*
X155008328Y-121373000D01*
X154903743Y-121359231D01*
X154814045Y-121322077D01*
X154737024Y-121262976D01*
X154677923Y-121185955D01*
X154640769Y-121096257D01*
X154627000Y-120991672D01*
X154627000Y-119707107D01*
X154625914Y-119690530D01*
X154608877Y-119561120D01*
X154600296Y-119529096D01*
X154550346Y-119408506D01*
X154533769Y-119379794D01*
X154454309Y-119276240D01*
X154443356Y-119263750D01*
X152736250Y-117556644D01*
X152723760Y-117545691D01*
X152620206Y-117466231D01*
X152591494Y-117449654D01*
X152470904Y-117399704D01*
X152438880Y-117391123D01*
X152309470Y-117374086D01*
X152292893Y-117373000D01*
X146508328Y-117373000D01*
X146403743Y-117359231D01*
X146314045Y-117322077D01*
X146237024Y-117262976D01*
X146177923Y-117185955D01*
X146140769Y-117096257D01*
X146127000Y-116991672D01*
X146127000Y-115008328D01*
X146140769Y-114903743D01*
X146177923Y-114814045D01*
X146237024Y-114737024D01*
X146314045Y-114677923D01*
X146403743Y-114640769D01*
X146508328Y-114627000D01*
X153792893Y-114627000D01*
X153809470Y-114625914D01*
X153938880Y-114608877D01*
X153970904Y-114600296D01*
X154091494Y-114550346D01*
X154120206Y-114533769D01*
X154223760Y-114454309D01*
X154236250Y-114443356D01*
X156437472Y-112242134D01*
X156521155Y-112177922D01*
X156610850Y-112140769D01*
X156715435Y-112127000D01*
X158991672Y-112127000D01*
X159096257Y-112140769D01*
G04 #@! TA.AperFunction,Conductor*
D20*
G36*
X159096257Y-112140769D02*
G01*
X159185955Y-112177923D01*
X159262976Y-112237024D01*
X159322077Y-112314045D01*
X159359231Y-112403743D01*
X159373000Y-112508328D01*
X159373000Y-114339262D01*
X159355671Y-114456299D01*
X159305166Y-114563298D01*
X157478305Y-117303591D01*
X157469126Y-117319828D01*
X157406605Y-117452286D01*
X157395824Y-117487894D01*
X157374370Y-117632786D01*
X157373000Y-117651388D01*
X157373000Y-120991672D01*
X157359231Y-121096257D01*
X157322077Y-121185955D01*
X157262976Y-121262976D01*
X157185955Y-121322077D01*
X157096257Y-121359231D01*
X156991672Y-121373000D01*
X156896256Y-121373000D01*
X156679727Y-121228320D01*
X156418574Y-121120147D01*
X156141335Y-121065000D01*
X155858665Y-121065000D01*
X155581426Y-121120147D01*
X155320273Y-121228320D01*
X155103744Y-121373000D01*
X155008328Y-121373000D01*
X154903743Y-121359231D01*
X154814045Y-121322077D01*
X154737024Y-121262976D01*
X154677923Y-121185955D01*
X154640769Y-121096257D01*
X154627000Y-120991672D01*
X154627000Y-119707107D01*
X154625914Y-119690530D01*
X154608877Y-119561120D01*
X154600296Y-119529096D01*
X154550346Y-119408506D01*
X154533769Y-119379794D01*
X154454309Y-119276240D01*
X154443356Y-119263750D01*
X152736250Y-117556644D01*
X152723760Y-117545691D01*
X152620206Y-117466231D01*
X152591494Y-117449654D01*
X152470904Y-117399704D01*
X152438880Y-117391123D01*
X152309470Y-117374086D01*
X152292893Y-117373000D01*
X146508328Y-117373000D01*
X146403743Y-117359231D01*
X146314045Y-117322077D01*
X146237024Y-117262976D01*
X146177923Y-117185955D01*
X146140769Y-117096257D01*
X146127000Y-116991672D01*
X146127000Y-115008328D01*
X146140769Y-114903743D01*
X146177923Y-114814045D01*
X146237024Y-114737024D01*
X146314045Y-114677923D01*
X146403743Y-114640769D01*
X146508328Y-114627000D01*
X153792893Y-114627000D01*
X153809470Y-114625914D01*
X153938880Y-114608877D01*
X153970904Y-114600296D01*
X154091494Y-114550346D01*
X154120206Y-114533769D01*
X154223760Y-114454309D01*
X154236250Y-114443356D01*
X156437472Y-112242134D01*
X156521155Y-112177922D01*
X156610850Y-112140769D01*
X156715435Y-112127000D01*
X158991672Y-112127000D01*
X159096257Y-112140769D01*
G37*
G04 #@! TD.AperFunction*
M02*
