G04 #@! TF.GenerationSoftware,KiCad,Pcbnew,(5.1.10)-1*
G04 #@! TF.CreationDate,2022-03-26T09:57:36-04:00*
G04 #@! TF.ProjectId,Microphone Amplifier,4d696372-6f70-4686-9f6e-6520416d706c,rev?*
G04 #@! TF.SameCoordinates,Original*
G04 #@! TF.FileFunction,Copper,L2,Bot*
G04 #@! TF.FilePolarity,Positive*
%FSLAX46Y46*%
G04 Gerber Fmt 4.6, Leading zero omitted, Abs format (unit mm)*
G04 Created by KiCad (PCBNEW (5.1.10)-1) date 2022-03-26 09:57:36*
%MOMM*%
%LPD*%
G01*
G04 APERTURE LIST*
G04 #@! TA.AperFunction,ComponentPad*
%ADD10C,1.600000*%
G04 #@! TD*
G04 #@! TA.AperFunction,ComponentPad*
%ADD11R,1.600000X1.600000*%
G04 #@! TD*
G04 #@! TA.AperFunction,ComponentPad*
%ADD12O,1.600000X1.600000*%
G04 #@! TD*
G04 #@! TA.AperFunction,ComponentPad*
%ADD13C,1.378000*%
G04 #@! TD*
G04 #@! TA.AperFunction,ComponentPad*
%ADD14R,1.378000X1.378000*%
G04 #@! TD*
G04 #@! TA.AperFunction,ComponentPad*
%ADD15O,1.700000X1.700000*%
G04 #@! TD*
G04 #@! TA.AperFunction,ComponentPad*
%ADD16R,1.700000X1.700000*%
G04 #@! TD*
G04 #@! TA.AperFunction,Conductor*
%ADD17C,0.750000*%
G04 #@! TD*
G04 #@! TA.AperFunction,Conductor*
%ADD18C,0.254000*%
G04 #@! TD*
G04 #@! TA.AperFunction,Conductor*
%ADD19C,0.100000*%
G04 #@! TD*
G04 APERTURE END LIST*
D10*
X156000000Y-122500000D03*
D11*
X156000000Y-120500000D03*
D12*
X113620000Y-116000000D03*
X106000000Y-123620000D03*
X113620000Y-118540000D03*
X106000000Y-121080000D03*
X113620000Y-121080000D03*
X106000000Y-118540000D03*
X113620000Y-123620000D03*
D11*
X106000000Y-116000000D03*
D12*
X125620000Y-116000000D03*
X118000000Y-123620000D03*
X125620000Y-118540000D03*
X118000000Y-121080000D03*
X125620000Y-121080000D03*
X118000000Y-118540000D03*
X125620000Y-123620000D03*
D11*
X118000000Y-116000000D03*
D12*
X147120000Y-121000000D03*
D10*
X139500000Y-121000000D03*
D12*
X117880000Y-110500000D03*
D10*
X125500000Y-110500000D03*
D12*
X147120000Y-116000000D03*
D10*
X139500000Y-116000000D03*
D12*
X130000000Y-116000000D03*
D10*
X130000000Y-123620000D03*
D12*
X135000000Y-123620000D03*
D10*
X135000000Y-116000000D03*
D13*
X158000000Y-110730000D03*
D14*
X158000000Y-113270000D03*
D15*
X135080000Y-110500000D03*
X132540000Y-110500000D03*
D16*
X130000000Y-110500000D03*
D15*
X98500000Y-122620000D03*
X98500000Y-120080000D03*
X98500000Y-117540000D03*
X98500000Y-115000000D03*
X98500000Y-112460000D03*
D16*
X98500000Y-109920000D03*
D10*
X145500000Y-110500000D03*
X140500000Y-110500000D03*
X107250000Y-110500000D03*
X112250000Y-110500000D03*
D17*
X123540000Y-112460000D02*
X125500000Y-110500000D01*
X98500000Y-112460000D02*
X123540000Y-112460000D01*
X125620000Y-116000000D02*
X123870000Y-114250000D01*
X115370000Y-114250000D02*
X113620000Y-116000000D01*
X123870000Y-114250000D02*
X115370000Y-114250000D01*
D18*
X160453893Y-106707670D02*
X160890498Y-106839489D01*
X161293185Y-107053600D01*
X161646612Y-107341848D01*
X161937327Y-107693261D01*
X162154242Y-108094439D01*
X162289106Y-108530113D01*
X162340001Y-109014353D01*
X162340000Y-123967721D01*
X162292330Y-124453894D01*
X162160512Y-124890497D01*
X161946399Y-125293186D01*
X161658150Y-125646613D01*
X161306739Y-125937327D01*
X160905564Y-126154240D01*
X160469886Y-126289106D01*
X159985664Y-126340000D01*
X98532279Y-126340000D01*
X98046106Y-126292330D01*
X97609503Y-126160512D01*
X97206814Y-125946399D01*
X96853387Y-125658150D01*
X96562673Y-125306739D01*
X96345760Y-124905564D01*
X96210894Y-124469886D01*
X96160000Y-123985664D01*
X96160000Y-122976890D01*
X97058524Y-122976890D01*
X97103175Y-123124099D01*
X97228359Y-123386920D01*
X97402412Y-123620269D01*
X97618645Y-123815178D01*
X97868748Y-123964157D01*
X98143109Y-124061481D01*
X98373000Y-123940814D01*
X98373000Y-122747000D01*
X98627000Y-122747000D01*
X98627000Y-123940814D01*
X98856891Y-124061481D01*
X99117489Y-123969039D01*
X104608096Y-123969039D01*
X104648754Y-124103087D01*
X104768963Y-124357420D01*
X104936481Y-124583414D01*
X105144869Y-124772385D01*
X105386119Y-124917070D01*
X105650960Y-125011909D01*
X105873000Y-124890624D01*
X105873000Y-123747000D01*
X106127000Y-123747000D01*
X106127000Y-124890624D01*
X106349040Y-125011909D01*
X106613881Y-124917070D01*
X106855131Y-124772385D01*
X107063519Y-124583414D01*
X107231037Y-124357420D01*
X107351246Y-124103087D01*
X107391904Y-123969039D01*
X107269915Y-123747000D01*
X106127000Y-123747000D01*
X105873000Y-123747000D01*
X104730085Y-123747000D01*
X104608096Y-123969039D01*
X99117489Y-123969039D01*
X99131252Y-123964157D01*
X99381355Y-123815178D01*
X99597588Y-123620269D01*
X99771641Y-123386920D01*
X99896825Y-123124099D01*
X99941476Y-122976890D01*
X99820155Y-122747000D01*
X98627000Y-122747000D01*
X98373000Y-122747000D01*
X97179845Y-122747000D01*
X97058524Y-122976890D01*
X96160000Y-122976890D01*
X96160000Y-109070000D01*
X97011928Y-109070000D01*
X97011928Y-110770000D01*
X97024188Y-110894482D01*
X97060498Y-111014180D01*
X97119463Y-111124494D01*
X97198815Y-111221185D01*
X97295506Y-111300537D01*
X97405820Y-111359502D01*
X97478380Y-111381513D01*
X97346525Y-111513368D01*
X97184010Y-111756589D01*
X97072068Y-112026842D01*
X97015000Y-112313740D01*
X97015000Y-112606260D01*
X97072068Y-112893158D01*
X97184010Y-113163411D01*
X97346525Y-113406632D01*
X97553368Y-113613475D01*
X97727760Y-113730000D01*
X97553368Y-113846525D01*
X97346525Y-114053368D01*
X97184010Y-114296589D01*
X97072068Y-114566842D01*
X97015000Y-114853740D01*
X97015000Y-115146260D01*
X97072068Y-115433158D01*
X97184010Y-115703411D01*
X97346525Y-115946632D01*
X97553368Y-116153475D01*
X97727760Y-116270000D01*
X97553368Y-116386525D01*
X97346525Y-116593368D01*
X97184010Y-116836589D01*
X97072068Y-117106842D01*
X97015000Y-117393740D01*
X97015000Y-117686260D01*
X97072068Y-117973158D01*
X97184010Y-118243411D01*
X97346525Y-118486632D01*
X97553368Y-118693475D01*
X97727760Y-118810000D01*
X97553368Y-118926525D01*
X97346525Y-119133368D01*
X97184010Y-119376589D01*
X97072068Y-119646842D01*
X97015000Y-119933740D01*
X97015000Y-120226260D01*
X97072068Y-120513158D01*
X97184010Y-120783411D01*
X97346525Y-121026632D01*
X97553368Y-121233475D01*
X97735534Y-121355195D01*
X97618645Y-121424822D01*
X97402412Y-121619731D01*
X97228359Y-121853080D01*
X97103175Y-122115901D01*
X97058524Y-122263110D01*
X97179845Y-122493000D01*
X98373000Y-122493000D01*
X98373000Y-122473000D01*
X98627000Y-122473000D01*
X98627000Y-122493000D01*
X99820155Y-122493000D01*
X99941476Y-122263110D01*
X99896825Y-122115901D01*
X99771641Y-121853080D01*
X99597588Y-121619731D01*
X99381355Y-121424822D01*
X99264466Y-121355195D01*
X99446632Y-121233475D01*
X99653475Y-121026632D01*
X99815990Y-120783411D01*
X99927932Y-120513158D01*
X99985000Y-120226260D01*
X99985000Y-119933740D01*
X99927932Y-119646842D01*
X99815990Y-119376589D01*
X99653475Y-119133368D01*
X99446632Y-118926525D01*
X99272240Y-118810000D01*
X99446632Y-118693475D01*
X99653475Y-118486632D01*
X99815990Y-118243411D01*
X99927932Y-117973158D01*
X99985000Y-117686260D01*
X99985000Y-117393740D01*
X99927932Y-117106842D01*
X99815990Y-116836589D01*
X99653475Y-116593368D01*
X99446632Y-116386525D01*
X99272240Y-116270000D01*
X99446632Y-116153475D01*
X99653475Y-115946632D01*
X99815990Y-115703411D01*
X99927932Y-115433158D01*
X99974310Y-115200000D01*
X104561928Y-115200000D01*
X104561928Y-116800000D01*
X104574188Y-116924482D01*
X104610498Y-117044180D01*
X104669463Y-117154494D01*
X104748815Y-117251185D01*
X104845506Y-117330537D01*
X104955820Y-117389502D01*
X105075518Y-117425812D01*
X105083961Y-117426643D01*
X104885363Y-117625241D01*
X104728320Y-117860273D01*
X104620147Y-118121426D01*
X104565000Y-118398665D01*
X104565000Y-118681335D01*
X104620147Y-118958574D01*
X104728320Y-119219727D01*
X104885363Y-119454759D01*
X105085241Y-119654637D01*
X105317759Y-119810000D01*
X105085241Y-119965363D01*
X104885363Y-120165241D01*
X104728320Y-120400273D01*
X104620147Y-120661426D01*
X104565000Y-120938665D01*
X104565000Y-121221335D01*
X104620147Y-121498574D01*
X104728320Y-121759727D01*
X104885363Y-121994759D01*
X105085241Y-122194637D01*
X105320273Y-122351680D01*
X105330865Y-122356067D01*
X105144869Y-122467615D01*
X104936481Y-122656586D01*
X104768963Y-122882580D01*
X104648754Y-123136913D01*
X104608096Y-123270961D01*
X104730085Y-123493000D01*
X105873000Y-123493000D01*
X105873000Y-123473000D01*
X106127000Y-123473000D01*
X106127000Y-123493000D01*
X107269915Y-123493000D01*
X107391904Y-123270961D01*
X107351246Y-123136913D01*
X107231037Y-122882580D01*
X107063519Y-122656586D01*
X106855131Y-122467615D01*
X106669135Y-122356067D01*
X106679727Y-122351680D01*
X106914759Y-122194637D01*
X107114637Y-121994759D01*
X107271680Y-121759727D01*
X107379853Y-121498574D01*
X107435000Y-121221335D01*
X107435000Y-120938665D01*
X107379853Y-120661426D01*
X107271680Y-120400273D01*
X107114637Y-120165241D01*
X106914759Y-119965363D01*
X106682241Y-119810000D01*
X106914759Y-119654637D01*
X107114637Y-119454759D01*
X107271680Y-119219727D01*
X107379853Y-118958574D01*
X107435000Y-118681335D01*
X107435000Y-118398665D01*
X107379853Y-118121426D01*
X107271680Y-117860273D01*
X107114637Y-117625241D01*
X106916039Y-117426643D01*
X106924482Y-117425812D01*
X107044180Y-117389502D01*
X107154494Y-117330537D01*
X107251185Y-117251185D01*
X107330537Y-117154494D01*
X107389502Y-117044180D01*
X107425812Y-116924482D01*
X107438072Y-116800000D01*
X107438072Y-115200000D01*
X107425812Y-115075518D01*
X107389502Y-114955820D01*
X107330537Y-114845506D01*
X107251185Y-114748815D01*
X107154494Y-114669463D01*
X107044180Y-114610498D01*
X106924482Y-114574188D01*
X106800000Y-114561928D01*
X105200000Y-114561928D01*
X105075518Y-114574188D01*
X104955820Y-114610498D01*
X104845506Y-114669463D01*
X104748815Y-114748815D01*
X104669463Y-114845506D01*
X104610498Y-114955820D01*
X104574188Y-115075518D01*
X104561928Y-115200000D01*
X99974310Y-115200000D01*
X99985000Y-115146260D01*
X99985000Y-114853740D01*
X99927932Y-114566842D01*
X99815990Y-114296589D01*
X99653475Y-114053368D01*
X99446632Y-113846525D01*
X99272240Y-113730000D01*
X99446632Y-113613475D01*
X99590107Y-113470000D01*
X114728362Y-113470000D01*
X114652367Y-113532367D01*
X114620744Y-113570901D01*
X113626645Y-114565000D01*
X113478665Y-114565000D01*
X113201426Y-114620147D01*
X112940273Y-114728320D01*
X112705241Y-114885363D01*
X112505363Y-115085241D01*
X112348320Y-115320273D01*
X112240147Y-115581426D01*
X112185000Y-115858665D01*
X112185000Y-116141335D01*
X112240147Y-116418574D01*
X112348320Y-116679727D01*
X112505363Y-116914759D01*
X112705241Y-117114637D01*
X112937759Y-117270000D01*
X112705241Y-117425363D01*
X112505363Y-117625241D01*
X112348320Y-117860273D01*
X112240147Y-118121426D01*
X112185000Y-118398665D01*
X112185000Y-118681335D01*
X112240147Y-118958574D01*
X112348320Y-119219727D01*
X112505363Y-119454759D01*
X112705241Y-119654637D01*
X112937759Y-119810000D01*
X112705241Y-119965363D01*
X112505363Y-120165241D01*
X112348320Y-120400273D01*
X112240147Y-120661426D01*
X112185000Y-120938665D01*
X112185000Y-121221335D01*
X112240147Y-121498574D01*
X112348320Y-121759727D01*
X112505363Y-121994759D01*
X112705241Y-122194637D01*
X112937759Y-122350000D01*
X112705241Y-122505363D01*
X112505363Y-122705241D01*
X112348320Y-122940273D01*
X112240147Y-123201426D01*
X112185000Y-123478665D01*
X112185000Y-123761335D01*
X112240147Y-124038574D01*
X112348320Y-124299727D01*
X112505363Y-124534759D01*
X112705241Y-124734637D01*
X112940273Y-124891680D01*
X113201426Y-124999853D01*
X113478665Y-125055000D01*
X113761335Y-125055000D01*
X114038574Y-124999853D01*
X114299727Y-124891680D01*
X114534759Y-124734637D01*
X114734637Y-124534759D01*
X114891680Y-124299727D01*
X114999853Y-124038574D01*
X115013684Y-123969039D01*
X116608096Y-123969039D01*
X116648754Y-124103087D01*
X116768963Y-124357420D01*
X116936481Y-124583414D01*
X117144869Y-124772385D01*
X117386119Y-124917070D01*
X117650960Y-125011909D01*
X117873000Y-124890624D01*
X117873000Y-123747000D01*
X118127000Y-123747000D01*
X118127000Y-124890624D01*
X118349040Y-125011909D01*
X118613881Y-124917070D01*
X118855131Y-124772385D01*
X119063519Y-124583414D01*
X119231037Y-124357420D01*
X119351246Y-124103087D01*
X119391904Y-123969039D01*
X119269915Y-123747000D01*
X118127000Y-123747000D01*
X117873000Y-123747000D01*
X116730085Y-123747000D01*
X116608096Y-123969039D01*
X115013684Y-123969039D01*
X115055000Y-123761335D01*
X115055000Y-123478665D01*
X114999853Y-123201426D01*
X114891680Y-122940273D01*
X114734637Y-122705241D01*
X114534759Y-122505363D01*
X114302241Y-122350000D01*
X114534759Y-122194637D01*
X114734637Y-121994759D01*
X114891680Y-121759727D01*
X114999853Y-121498574D01*
X115055000Y-121221335D01*
X115055000Y-120938665D01*
X114999853Y-120661426D01*
X114891680Y-120400273D01*
X114734637Y-120165241D01*
X114534759Y-119965363D01*
X114302241Y-119810000D01*
X114534759Y-119654637D01*
X114734637Y-119454759D01*
X114891680Y-119219727D01*
X114999853Y-118958574D01*
X115055000Y-118681335D01*
X115055000Y-118398665D01*
X114999853Y-118121426D01*
X114891680Y-117860273D01*
X114734637Y-117625241D01*
X114534759Y-117425363D01*
X114302241Y-117270000D01*
X114534759Y-117114637D01*
X114734637Y-116914759D01*
X114891680Y-116679727D01*
X114999853Y-116418574D01*
X115055000Y-116141335D01*
X115055000Y-115993355D01*
X115788356Y-115260000D01*
X116561928Y-115260000D01*
X116561928Y-116800000D01*
X116574188Y-116924482D01*
X116610498Y-117044180D01*
X116669463Y-117154494D01*
X116748815Y-117251185D01*
X116845506Y-117330537D01*
X116955820Y-117389502D01*
X117075518Y-117425812D01*
X117083961Y-117426643D01*
X116885363Y-117625241D01*
X116728320Y-117860273D01*
X116620147Y-118121426D01*
X116565000Y-118398665D01*
X116565000Y-118681335D01*
X116620147Y-118958574D01*
X116728320Y-119219727D01*
X116885363Y-119454759D01*
X117085241Y-119654637D01*
X117317759Y-119810000D01*
X117085241Y-119965363D01*
X116885363Y-120165241D01*
X116728320Y-120400273D01*
X116620147Y-120661426D01*
X116565000Y-120938665D01*
X116565000Y-121221335D01*
X116620147Y-121498574D01*
X116728320Y-121759727D01*
X116885363Y-121994759D01*
X117085241Y-122194637D01*
X117320273Y-122351680D01*
X117330865Y-122356067D01*
X117144869Y-122467615D01*
X116936481Y-122656586D01*
X116768963Y-122882580D01*
X116648754Y-123136913D01*
X116608096Y-123270961D01*
X116730085Y-123493000D01*
X117873000Y-123493000D01*
X117873000Y-123473000D01*
X118127000Y-123473000D01*
X118127000Y-123493000D01*
X119269915Y-123493000D01*
X119391904Y-123270961D01*
X119351246Y-123136913D01*
X119231037Y-122882580D01*
X119063519Y-122656586D01*
X118855131Y-122467615D01*
X118669135Y-122356067D01*
X118679727Y-122351680D01*
X118914759Y-122194637D01*
X119114637Y-121994759D01*
X119271680Y-121759727D01*
X119379853Y-121498574D01*
X119435000Y-121221335D01*
X119435000Y-120938665D01*
X119379853Y-120661426D01*
X119271680Y-120400273D01*
X119114637Y-120165241D01*
X118914759Y-119965363D01*
X118682241Y-119810000D01*
X118914759Y-119654637D01*
X119114637Y-119454759D01*
X119271680Y-119219727D01*
X119379853Y-118958574D01*
X119435000Y-118681335D01*
X119435000Y-118398665D01*
X119379853Y-118121426D01*
X119271680Y-117860273D01*
X119114637Y-117625241D01*
X118916039Y-117426643D01*
X118924482Y-117425812D01*
X119044180Y-117389502D01*
X119154494Y-117330537D01*
X119251185Y-117251185D01*
X119330537Y-117154494D01*
X119389502Y-117044180D01*
X119425812Y-116924482D01*
X119438072Y-116800000D01*
X119438072Y-115260000D01*
X123451645Y-115260000D01*
X124185000Y-115993356D01*
X124185000Y-116141335D01*
X124240147Y-116418574D01*
X124348320Y-116679727D01*
X124505363Y-116914759D01*
X124705241Y-117114637D01*
X124937759Y-117270000D01*
X124705241Y-117425363D01*
X124505363Y-117625241D01*
X124348320Y-117860273D01*
X124240147Y-118121426D01*
X124185000Y-118398665D01*
X124185000Y-118681335D01*
X124240147Y-118958574D01*
X124348320Y-119219727D01*
X124505363Y-119454759D01*
X124705241Y-119654637D01*
X124937759Y-119810000D01*
X124705241Y-119965363D01*
X124505363Y-120165241D01*
X124348320Y-120400273D01*
X124240147Y-120661426D01*
X124185000Y-120938665D01*
X124185000Y-121221335D01*
X124240147Y-121498574D01*
X124348320Y-121759727D01*
X124505363Y-121994759D01*
X124705241Y-122194637D01*
X124937759Y-122350000D01*
X124705241Y-122505363D01*
X124505363Y-122705241D01*
X124348320Y-122940273D01*
X124240147Y-123201426D01*
X124185000Y-123478665D01*
X124185000Y-123761335D01*
X124240147Y-124038574D01*
X124348320Y-124299727D01*
X124505363Y-124534759D01*
X124705241Y-124734637D01*
X124940273Y-124891680D01*
X125201426Y-124999853D01*
X125478665Y-125055000D01*
X125761335Y-125055000D01*
X126038574Y-124999853D01*
X126299727Y-124891680D01*
X126534759Y-124734637D01*
X126734637Y-124534759D01*
X126891680Y-124299727D01*
X126999853Y-124038574D01*
X127055000Y-123761335D01*
X127055000Y-123478665D01*
X128565000Y-123478665D01*
X128565000Y-123761335D01*
X128620147Y-124038574D01*
X128728320Y-124299727D01*
X128885363Y-124534759D01*
X129085241Y-124734637D01*
X129320273Y-124891680D01*
X129581426Y-124999853D01*
X129858665Y-125055000D01*
X130141335Y-125055000D01*
X130418574Y-124999853D01*
X130679727Y-124891680D01*
X130914759Y-124734637D01*
X131114637Y-124534759D01*
X131271680Y-124299727D01*
X131379853Y-124038574D01*
X131435000Y-123761335D01*
X131435000Y-123478665D01*
X133565000Y-123478665D01*
X133565000Y-123761335D01*
X133620147Y-124038574D01*
X133728320Y-124299727D01*
X133885363Y-124534759D01*
X134085241Y-124734637D01*
X134320273Y-124891680D01*
X134581426Y-124999853D01*
X134858665Y-125055000D01*
X135141335Y-125055000D01*
X135418574Y-124999853D01*
X135679727Y-124891680D01*
X135914759Y-124734637D01*
X136114637Y-124534759D01*
X136271680Y-124299727D01*
X136379853Y-124038574D01*
X136435000Y-123761335D01*
X136435000Y-123478665D01*
X136379853Y-123201426D01*
X136271680Y-122940273D01*
X136114637Y-122705241D01*
X135914759Y-122505363D01*
X135679727Y-122348320D01*
X135418574Y-122240147D01*
X135141335Y-122185000D01*
X134858665Y-122185000D01*
X134581426Y-122240147D01*
X134320273Y-122348320D01*
X134085241Y-122505363D01*
X133885363Y-122705241D01*
X133728320Y-122940273D01*
X133620147Y-123201426D01*
X133565000Y-123478665D01*
X131435000Y-123478665D01*
X131379853Y-123201426D01*
X131271680Y-122940273D01*
X131114637Y-122705241D01*
X130914759Y-122505363D01*
X130679727Y-122348320D01*
X130418574Y-122240147D01*
X130141335Y-122185000D01*
X129858665Y-122185000D01*
X129581426Y-122240147D01*
X129320273Y-122348320D01*
X129085241Y-122505363D01*
X128885363Y-122705241D01*
X128728320Y-122940273D01*
X128620147Y-123201426D01*
X128565000Y-123478665D01*
X127055000Y-123478665D01*
X126999853Y-123201426D01*
X126891680Y-122940273D01*
X126734637Y-122705241D01*
X126534759Y-122505363D01*
X126302241Y-122350000D01*
X126534759Y-122194637D01*
X126734637Y-121994759D01*
X126891680Y-121759727D01*
X126999853Y-121498574D01*
X127055000Y-121221335D01*
X127055000Y-120938665D01*
X127039087Y-120858665D01*
X138065000Y-120858665D01*
X138065000Y-121141335D01*
X138120147Y-121418574D01*
X138228320Y-121679727D01*
X138385363Y-121914759D01*
X138585241Y-122114637D01*
X138820273Y-122271680D01*
X139081426Y-122379853D01*
X139358665Y-122435000D01*
X139641335Y-122435000D01*
X139918574Y-122379853D01*
X140179727Y-122271680D01*
X140414759Y-122114637D01*
X140614637Y-121914759D01*
X140771680Y-121679727D01*
X140879853Y-121418574D01*
X140935000Y-121141335D01*
X140935000Y-120858665D01*
X145685000Y-120858665D01*
X145685000Y-121141335D01*
X145740147Y-121418574D01*
X145848320Y-121679727D01*
X146005363Y-121914759D01*
X146205241Y-122114637D01*
X146440273Y-122271680D01*
X146701426Y-122379853D01*
X146978665Y-122435000D01*
X147261335Y-122435000D01*
X147538574Y-122379853D01*
X147799727Y-122271680D01*
X148034759Y-122114637D01*
X148234637Y-121914759D01*
X148391680Y-121679727D01*
X148499853Y-121418574D01*
X148555000Y-121141335D01*
X148555000Y-120858665D01*
X148499853Y-120581426D01*
X148391680Y-120320273D01*
X148234637Y-120085241D01*
X148034759Y-119885363D01*
X147799727Y-119728320D01*
X147731357Y-119700000D01*
X154561928Y-119700000D01*
X154561928Y-121300000D01*
X154574188Y-121424482D01*
X154610498Y-121544180D01*
X154669463Y-121654494D01*
X154748815Y-121751185D01*
X154765393Y-121764790D01*
X154728320Y-121820273D01*
X154620147Y-122081426D01*
X154565000Y-122358665D01*
X154565000Y-122641335D01*
X154620147Y-122918574D01*
X154728320Y-123179727D01*
X154885363Y-123414759D01*
X155085241Y-123614637D01*
X155320273Y-123771680D01*
X155581426Y-123879853D01*
X155858665Y-123935000D01*
X156141335Y-123935000D01*
X156418574Y-123879853D01*
X156679727Y-123771680D01*
X156914759Y-123614637D01*
X157114637Y-123414759D01*
X157271680Y-123179727D01*
X157379853Y-122918574D01*
X157435000Y-122641335D01*
X157435000Y-122358665D01*
X157379853Y-122081426D01*
X157271680Y-121820273D01*
X157234607Y-121764790D01*
X157251185Y-121751185D01*
X157330537Y-121654494D01*
X157389502Y-121544180D01*
X157425812Y-121424482D01*
X157438072Y-121300000D01*
X157438072Y-119700000D01*
X157425812Y-119575518D01*
X157389502Y-119455820D01*
X157330537Y-119345506D01*
X157251185Y-119248815D01*
X157154494Y-119169463D01*
X157044180Y-119110498D01*
X156924482Y-119074188D01*
X156800000Y-119061928D01*
X155200000Y-119061928D01*
X155075518Y-119074188D01*
X154955820Y-119110498D01*
X154845506Y-119169463D01*
X154748815Y-119248815D01*
X154669463Y-119345506D01*
X154610498Y-119455820D01*
X154574188Y-119575518D01*
X154561928Y-119700000D01*
X147731357Y-119700000D01*
X147538574Y-119620147D01*
X147261335Y-119565000D01*
X146978665Y-119565000D01*
X146701426Y-119620147D01*
X146440273Y-119728320D01*
X146205241Y-119885363D01*
X146005363Y-120085241D01*
X145848320Y-120320273D01*
X145740147Y-120581426D01*
X145685000Y-120858665D01*
X140935000Y-120858665D01*
X140879853Y-120581426D01*
X140771680Y-120320273D01*
X140614637Y-120085241D01*
X140414759Y-119885363D01*
X140179727Y-119728320D01*
X139918574Y-119620147D01*
X139641335Y-119565000D01*
X139358665Y-119565000D01*
X139081426Y-119620147D01*
X138820273Y-119728320D01*
X138585241Y-119885363D01*
X138385363Y-120085241D01*
X138228320Y-120320273D01*
X138120147Y-120581426D01*
X138065000Y-120858665D01*
X127039087Y-120858665D01*
X126999853Y-120661426D01*
X126891680Y-120400273D01*
X126734637Y-120165241D01*
X126534759Y-119965363D01*
X126302241Y-119810000D01*
X126534759Y-119654637D01*
X126734637Y-119454759D01*
X126891680Y-119219727D01*
X126999853Y-118958574D01*
X127055000Y-118681335D01*
X127055000Y-118398665D01*
X126999853Y-118121426D01*
X126891680Y-117860273D01*
X126734637Y-117625241D01*
X126534759Y-117425363D01*
X126302241Y-117270000D01*
X126534759Y-117114637D01*
X126734637Y-116914759D01*
X126891680Y-116679727D01*
X126999853Y-116418574D01*
X127013684Y-116349040D01*
X128608091Y-116349040D01*
X128702930Y-116613881D01*
X128847615Y-116855131D01*
X129036586Y-117063519D01*
X129262580Y-117231037D01*
X129516913Y-117351246D01*
X129650961Y-117391904D01*
X129873000Y-117269915D01*
X129873000Y-116127000D01*
X130127000Y-116127000D01*
X130127000Y-117269915D01*
X130349039Y-117391904D01*
X130483087Y-117351246D01*
X130737420Y-117231037D01*
X130963414Y-117063519D01*
X131152385Y-116855131D01*
X131297070Y-116613881D01*
X131391909Y-116349040D01*
X131270624Y-116127000D01*
X130127000Y-116127000D01*
X129873000Y-116127000D01*
X128729376Y-116127000D01*
X128608091Y-116349040D01*
X127013684Y-116349040D01*
X127055000Y-116141335D01*
X127055000Y-115858665D01*
X127013685Y-115650960D01*
X128608091Y-115650960D01*
X128729376Y-115873000D01*
X129873000Y-115873000D01*
X129873000Y-114730085D01*
X130127000Y-114730085D01*
X130127000Y-115873000D01*
X131270624Y-115873000D01*
X131278454Y-115858665D01*
X133565000Y-115858665D01*
X133565000Y-116141335D01*
X133620147Y-116418574D01*
X133728320Y-116679727D01*
X133885363Y-116914759D01*
X134085241Y-117114637D01*
X134320273Y-117271680D01*
X134581426Y-117379853D01*
X134858665Y-117435000D01*
X135141335Y-117435000D01*
X135418574Y-117379853D01*
X135679727Y-117271680D01*
X135914759Y-117114637D01*
X136114637Y-116914759D01*
X136271680Y-116679727D01*
X136379853Y-116418574D01*
X136435000Y-116141335D01*
X136435000Y-115858665D01*
X138065000Y-115858665D01*
X138065000Y-116141335D01*
X138120147Y-116418574D01*
X138228320Y-116679727D01*
X138385363Y-116914759D01*
X138585241Y-117114637D01*
X138820273Y-117271680D01*
X139081426Y-117379853D01*
X139358665Y-117435000D01*
X139641335Y-117435000D01*
X139918574Y-117379853D01*
X140179727Y-117271680D01*
X140414759Y-117114637D01*
X140614637Y-116914759D01*
X140771680Y-116679727D01*
X140879853Y-116418574D01*
X140935000Y-116141335D01*
X140935000Y-115858665D01*
X145685000Y-115858665D01*
X145685000Y-116141335D01*
X145740147Y-116418574D01*
X145848320Y-116679727D01*
X146005363Y-116914759D01*
X146205241Y-117114637D01*
X146440273Y-117271680D01*
X146701426Y-117379853D01*
X146978665Y-117435000D01*
X147261335Y-117435000D01*
X147538574Y-117379853D01*
X147799727Y-117271680D01*
X148034759Y-117114637D01*
X148234637Y-116914759D01*
X148391680Y-116679727D01*
X148499853Y-116418574D01*
X148555000Y-116141335D01*
X148555000Y-115858665D01*
X148499853Y-115581426D01*
X148391680Y-115320273D01*
X148234637Y-115085241D01*
X148034759Y-114885363D01*
X147799727Y-114728320D01*
X147538574Y-114620147D01*
X147261335Y-114565000D01*
X146978665Y-114565000D01*
X146701426Y-114620147D01*
X146440273Y-114728320D01*
X146205241Y-114885363D01*
X146005363Y-115085241D01*
X145848320Y-115320273D01*
X145740147Y-115581426D01*
X145685000Y-115858665D01*
X140935000Y-115858665D01*
X140879853Y-115581426D01*
X140771680Y-115320273D01*
X140614637Y-115085241D01*
X140414759Y-114885363D01*
X140179727Y-114728320D01*
X139918574Y-114620147D01*
X139641335Y-114565000D01*
X139358665Y-114565000D01*
X139081426Y-114620147D01*
X138820273Y-114728320D01*
X138585241Y-114885363D01*
X138385363Y-115085241D01*
X138228320Y-115320273D01*
X138120147Y-115581426D01*
X138065000Y-115858665D01*
X136435000Y-115858665D01*
X136379853Y-115581426D01*
X136271680Y-115320273D01*
X136114637Y-115085241D01*
X135914759Y-114885363D01*
X135679727Y-114728320D01*
X135418574Y-114620147D01*
X135141335Y-114565000D01*
X134858665Y-114565000D01*
X134581426Y-114620147D01*
X134320273Y-114728320D01*
X134085241Y-114885363D01*
X133885363Y-115085241D01*
X133728320Y-115320273D01*
X133620147Y-115581426D01*
X133565000Y-115858665D01*
X131278454Y-115858665D01*
X131391909Y-115650960D01*
X131297070Y-115386119D01*
X131152385Y-115144869D01*
X130963414Y-114936481D01*
X130737420Y-114768963D01*
X130483087Y-114648754D01*
X130349039Y-114608096D01*
X130127000Y-114730085D01*
X129873000Y-114730085D01*
X129650961Y-114608096D01*
X129516913Y-114648754D01*
X129262580Y-114768963D01*
X129036586Y-114936481D01*
X128847615Y-115144869D01*
X128702930Y-115386119D01*
X128608091Y-115650960D01*
X127013685Y-115650960D01*
X126999853Y-115581426D01*
X126891680Y-115320273D01*
X126734637Y-115085241D01*
X126534759Y-114885363D01*
X126299727Y-114728320D01*
X126038574Y-114620147D01*
X125761335Y-114565000D01*
X125613356Y-114565000D01*
X124619261Y-113570906D01*
X124587633Y-113532367D01*
X124433840Y-113406153D01*
X124258380Y-113312368D01*
X124137966Y-113275841D01*
X124257633Y-113177633D01*
X124289261Y-113139094D01*
X124847355Y-112581000D01*
X156672928Y-112581000D01*
X156672928Y-113959000D01*
X156685188Y-114083482D01*
X156721498Y-114203180D01*
X156780463Y-114313494D01*
X156859815Y-114410185D01*
X156956506Y-114489537D01*
X157066820Y-114548502D01*
X157186518Y-114584812D01*
X157311000Y-114597072D01*
X158689000Y-114597072D01*
X158813482Y-114584812D01*
X158933180Y-114548502D01*
X159043494Y-114489537D01*
X159140185Y-114410185D01*
X159219537Y-114313494D01*
X159278502Y-114203180D01*
X159314812Y-114083482D01*
X159327072Y-113959000D01*
X159327072Y-112581000D01*
X159314812Y-112456518D01*
X159278502Y-112336820D01*
X159219537Y-112226506D01*
X159140185Y-112129815D01*
X159043494Y-112050463D01*
X158933180Y-111991498D01*
X158813482Y-111955188D01*
X158689000Y-111942928D01*
X158538151Y-111942928D01*
X158577522Y-111928518D01*
X158675677Y-111876054D01*
X158733802Y-111643407D01*
X158000000Y-110909605D01*
X157266198Y-111643407D01*
X157324323Y-111876054D01*
X157468409Y-111942928D01*
X157311000Y-111942928D01*
X157186518Y-111955188D01*
X157066820Y-111991498D01*
X156956506Y-112050463D01*
X156859815Y-112129815D01*
X156780463Y-112226506D01*
X156721498Y-112336820D01*
X156685188Y-112456518D01*
X156672928Y-112581000D01*
X124847355Y-112581000D01*
X125493356Y-111935000D01*
X125641335Y-111935000D01*
X125918574Y-111879853D01*
X126179727Y-111771680D01*
X126414759Y-111614637D01*
X126614637Y-111414759D01*
X126771680Y-111179727D01*
X126879853Y-110918574D01*
X126935000Y-110641335D01*
X126935000Y-110358665D01*
X126879853Y-110081426D01*
X126771680Y-109820273D01*
X126657908Y-109650000D01*
X128511928Y-109650000D01*
X128511928Y-111350000D01*
X128524188Y-111474482D01*
X128560498Y-111594180D01*
X128619463Y-111704494D01*
X128698815Y-111801185D01*
X128795506Y-111880537D01*
X128905820Y-111939502D01*
X129025518Y-111975812D01*
X129150000Y-111988072D01*
X130850000Y-111988072D01*
X130974482Y-111975812D01*
X131094180Y-111939502D01*
X131204494Y-111880537D01*
X131301185Y-111801185D01*
X131380537Y-111704494D01*
X131439502Y-111594180D01*
X131461513Y-111521620D01*
X131593368Y-111653475D01*
X131836589Y-111815990D01*
X132106842Y-111927932D01*
X132393740Y-111985000D01*
X132686260Y-111985000D01*
X132973158Y-111927932D01*
X133243411Y-111815990D01*
X133486632Y-111653475D01*
X133693475Y-111446632D01*
X133810000Y-111272240D01*
X133926525Y-111446632D01*
X134133368Y-111653475D01*
X134376589Y-111815990D01*
X134646842Y-111927932D01*
X134933740Y-111985000D01*
X135226260Y-111985000D01*
X135513158Y-111927932D01*
X135783411Y-111815990D01*
X136026632Y-111653475D01*
X136233475Y-111446632D01*
X136395990Y-111203411D01*
X136507932Y-110933158D01*
X136565000Y-110646260D01*
X136565000Y-110358665D01*
X139065000Y-110358665D01*
X139065000Y-110641335D01*
X139120147Y-110918574D01*
X139228320Y-111179727D01*
X139385363Y-111414759D01*
X139585241Y-111614637D01*
X139820273Y-111771680D01*
X140081426Y-111879853D01*
X140358665Y-111935000D01*
X140641335Y-111935000D01*
X140918574Y-111879853D01*
X141179727Y-111771680D01*
X141414759Y-111614637D01*
X141536694Y-111492702D01*
X144686903Y-111492702D01*
X144758486Y-111736671D01*
X145013996Y-111857571D01*
X145288184Y-111926300D01*
X145570512Y-111940217D01*
X145850130Y-111898787D01*
X146116292Y-111803603D01*
X146241514Y-111736671D01*
X146313097Y-111492702D01*
X145500000Y-110679605D01*
X144686903Y-111492702D01*
X141536694Y-111492702D01*
X141614637Y-111414759D01*
X141771680Y-111179727D01*
X141879853Y-110918574D01*
X141935000Y-110641335D01*
X141935000Y-110570512D01*
X144059783Y-110570512D01*
X144101213Y-110850130D01*
X144196397Y-111116292D01*
X144263329Y-111241514D01*
X144507298Y-111313097D01*
X145320395Y-110500000D01*
X145679605Y-110500000D01*
X146492702Y-111313097D01*
X146736671Y-111241514D01*
X146857571Y-110986004D01*
X146902965Y-110804908D01*
X156671706Y-110804908D01*
X156711842Y-111062606D01*
X156801482Y-111307522D01*
X156853946Y-111405677D01*
X157086593Y-111463802D01*
X157820395Y-110730000D01*
X158179605Y-110730000D01*
X158913407Y-111463802D01*
X159146054Y-111405677D01*
X159255851Y-111169110D01*
X159317386Y-110915669D01*
X159328294Y-110655092D01*
X159288158Y-110397394D01*
X159198518Y-110152478D01*
X159146054Y-110054323D01*
X158913407Y-109996198D01*
X158179605Y-110730000D01*
X157820395Y-110730000D01*
X157086593Y-109996198D01*
X156853946Y-110054323D01*
X156744149Y-110290890D01*
X156682614Y-110544331D01*
X156671706Y-110804908D01*
X146902965Y-110804908D01*
X146926300Y-110711816D01*
X146940217Y-110429488D01*
X146898787Y-110149870D01*
X146803603Y-109883708D01*
X146767730Y-109816593D01*
X157266198Y-109816593D01*
X158000000Y-110550395D01*
X158733802Y-109816593D01*
X158675677Y-109583946D01*
X158439110Y-109474149D01*
X158185669Y-109412614D01*
X157925092Y-109401706D01*
X157667394Y-109441842D01*
X157422478Y-109531482D01*
X157324323Y-109583946D01*
X157266198Y-109816593D01*
X146767730Y-109816593D01*
X146736671Y-109758486D01*
X146492702Y-109686903D01*
X145679605Y-110500000D01*
X145320395Y-110500000D01*
X144507298Y-109686903D01*
X144263329Y-109758486D01*
X144142429Y-110013996D01*
X144073700Y-110288184D01*
X144059783Y-110570512D01*
X141935000Y-110570512D01*
X141935000Y-110358665D01*
X141879853Y-110081426D01*
X141771680Y-109820273D01*
X141614637Y-109585241D01*
X141536694Y-109507298D01*
X144686903Y-109507298D01*
X145500000Y-110320395D01*
X146313097Y-109507298D01*
X146241514Y-109263329D01*
X145986004Y-109142429D01*
X145711816Y-109073700D01*
X145429488Y-109059783D01*
X145149870Y-109101213D01*
X144883708Y-109196397D01*
X144758486Y-109263329D01*
X144686903Y-109507298D01*
X141536694Y-109507298D01*
X141414759Y-109385363D01*
X141179727Y-109228320D01*
X140918574Y-109120147D01*
X140641335Y-109065000D01*
X140358665Y-109065000D01*
X140081426Y-109120147D01*
X139820273Y-109228320D01*
X139585241Y-109385363D01*
X139385363Y-109585241D01*
X139228320Y-109820273D01*
X139120147Y-110081426D01*
X139065000Y-110358665D01*
X136565000Y-110358665D01*
X136565000Y-110353740D01*
X136507932Y-110066842D01*
X136395990Y-109796589D01*
X136233475Y-109553368D01*
X136026632Y-109346525D01*
X135783411Y-109184010D01*
X135513158Y-109072068D01*
X135226260Y-109015000D01*
X134933740Y-109015000D01*
X134646842Y-109072068D01*
X134376589Y-109184010D01*
X134133368Y-109346525D01*
X133926525Y-109553368D01*
X133810000Y-109727760D01*
X133693475Y-109553368D01*
X133486632Y-109346525D01*
X133243411Y-109184010D01*
X132973158Y-109072068D01*
X132686260Y-109015000D01*
X132393740Y-109015000D01*
X132106842Y-109072068D01*
X131836589Y-109184010D01*
X131593368Y-109346525D01*
X131461513Y-109478380D01*
X131439502Y-109405820D01*
X131380537Y-109295506D01*
X131301185Y-109198815D01*
X131204494Y-109119463D01*
X131094180Y-109060498D01*
X130974482Y-109024188D01*
X130850000Y-109011928D01*
X129150000Y-109011928D01*
X129025518Y-109024188D01*
X128905820Y-109060498D01*
X128795506Y-109119463D01*
X128698815Y-109198815D01*
X128619463Y-109295506D01*
X128560498Y-109405820D01*
X128524188Y-109525518D01*
X128511928Y-109650000D01*
X126657908Y-109650000D01*
X126614637Y-109585241D01*
X126414759Y-109385363D01*
X126179727Y-109228320D01*
X125918574Y-109120147D01*
X125641335Y-109065000D01*
X125358665Y-109065000D01*
X125081426Y-109120147D01*
X124820273Y-109228320D01*
X124585241Y-109385363D01*
X124385363Y-109585241D01*
X124228320Y-109820273D01*
X124120147Y-110081426D01*
X124065000Y-110358665D01*
X124065000Y-110506644D01*
X123121645Y-111450000D01*
X118959396Y-111450000D01*
X118994637Y-111414759D01*
X119151680Y-111179727D01*
X119259853Y-110918574D01*
X119315000Y-110641335D01*
X119315000Y-110358665D01*
X119259853Y-110081426D01*
X119151680Y-109820273D01*
X118994637Y-109585241D01*
X118794759Y-109385363D01*
X118559727Y-109228320D01*
X118298574Y-109120147D01*
X118021335Y-109065000D01*
X117738665Y-109065000D01*
X117461426Y-109120147D01*
X117200273Y-109228320D01*
X116965241Y-109385363D01*
X116765363Y-109585241D01*
X116608320Y-109820273D01*
X116500147Y-110081426D01*
X116445000Y-110358665D01*
X116445000Y-110641335D01*
X116500147Y-110918574D01*
X116608320Y-111179727D01*
X116765363Y-111414759D01*
X116800604Y-111450000D01*
X113329396Y-111450000D01*
X113364637Y-111414759D01*
X113521680Y-111179727D01*
X113629853Y-110918574D01*
X113685000Y-110641335D01*
X113685000Y-110358665D01*
X113629853Y-110081426D01*
X113521680Y-109820273D01*
X113364637Y-109585241D01*
X113164759Y-109385363D01*
X112929727Y-109228320D01*
X112668574Y-109120147D01*
X112391335Y-109065000D01*
X112108665Y-109065000D01*
X111831426Y-109120147D01*
X111570273Y-109228320D01*
X111335241Y-109385363D01*
X111135363Y-109585241D01*
X110978320Y-109820273D01*
X110870147Y-110081426D01*
X110815000Y-110358665D01*
X110815000Y-110641335D01*
X110870147Y-110918574D01*
X110978320Y-111179727D01*
X111135363Y-111414759D01*
X111170604Y-111450000D01*
X108338347Y-111450000D01*
X108358977Y-111429370D01*
X108242704Y-111313097D01*
X108486671Y-111241514D01*
X108607571Y-110986004D01*
X108676300Y-110711816D01*
X108690217Y-110429488D01*
X108648787Y-110149870D01*
X108553603Y-109883708D01*
X108486671Y-109758486D01*
X108242702Y-109686903D01*
X107429605Y-110500000D01*
X107443748Y-110514143D01*
X107264143Y-110693748D01*
X107250000Y-110679605D01*
X107235858Y-110693748D01*
X107056253Y-110514143D01*
X107070395Y-110500000D01*
X106257298Y-109686903D01*
X106013329Y-109758486D01*
X105892429Y-110013996D01*
X105823700Y-110288184D01*
X105809783Y-110570512D01*
X105851213Y-110850130D01*
X105946397Y-111116292D01*
X106013329Y-111241514D01*
X106257296Y-111313097D01*
X106141023Y-111429370D01*
X106161653Y-111450000D01*
X99590107Y-111450000D01*
X99521620Y-111381513D01*
X99594180Y-111359502D01*
X99704494Y-111300537D01*
X99801185Y-111221185D01*
X99880537Y-111124494D01*
X99939502Y-111014180D01*
X99975812Y-110894482D01*
X99988072Y-110770000D01*
X99988072Y-109507298D01*
X106436903Y-109507298D01*
X107250000Y-110320395D01*
X108063097Y-109507298D01*
X107991514Y-109263329D01*
X107736004Y-109142429D01*
X107461816Y-109073700D01*
X107179488Y-109059783D01*
X106899870Y-109101213D01*
X106633708Y-109196397D01*
X106508486Y-109263329D01*
X106436903Y-109507298D01*
X99988072Y-109507298D01*
X99988072Y-109070000D01*
X99975812Y-108945518D01*
X99939502Y-108825820D01*
X99880537Y-108715506D01*
X99801185Y-108618815D01*
X99704494Y-108539463D01*
X99594180Y-108480498D01*
X99474482Y-108444188D01*
X99350000Y-108431928D01*
X97650000Y-108431928D01*
X97525518Y-108444188D01*
X97405820Y-108480498D01*
X97295506Y-108539463D01*
X97198815Y-108618815D01*
X97119463Y-108715506D01*
X97060498Y-108825820D01*
X97024188Y-108945518D01*
X97011928Y-109070000D01*
X96160000Y-109070000D01*
X96160000Y-109032279D01*
X96207670Y-108546107D01*
X96339489Y-108109502D01*
X96553600Y-107706815D01*
X96841848Y-107353388D01*
X97193261Y-107062673D01*
X97594439Y-106845758D01*
X98030113Y-106710894D01*
X98514344Y-106660000D01*
X159967721Y-106660000D01*
X160453893Y-106707670D01*
G04 #@! TA.AperFunction,Conductor*
D19*
G36*
X160453893Y-106707670D02*
G01*
X160890498Y-106839489D01*
X161293185Y-107053600D01*
X161646612Y-107341848D01*
X161937327Y-107693261D01*
X162154242Y-108094439D01*
X162289106Y-108530113D01*
X162340001Y-109014353D01*
X162340000Y-123967721D01*
X162292330Y-124453894D01*
X162160512Y-124890497D01*
X161946399Y-125293186D01*
X161658150Y-125646613D01*
X161306739Y-125937327D01*
X160905564Y-126154240D01*
X160469886Y-126289106D01*
X159985664Y-126340000D01*
X98532279Y-126340000D01*
X98046106Y-126292330D01*
X97609503Y-126160512D01*
X97206814Y-125946399D01*
X96853387Y-125658150D01*
X96562673Y-125306739D01*
X96345760Y-124905564D01*
X96210894Y-124469886D01*
X96160000Y-123985664D01*
X96160000Y-122976890D01*
X97058524Y-122976890D01*
X97103175Y-123124099D01*
X97228359Y-123386920D01*
X97402412Y-123620269D01*
X97618645Y-123815178D01*
X97868748Y-123964157D01*
X98143109Y-124061481D01*
X98373000Y-123940814D01*
X98373000Y-122747000D01*
X98627000Y-122747000D01*
X98627000Y-123940814D01*
X98856891Y-124061481D01*
X99117489Y-123969039D01*
X104608096Y-123969039D01*
X104648754Y-124103087D01*
X104768963Y-124357420D01*
X104936481Y-124583414D01*
X105144869Y-124772385D01*
X105386119Y-124917070D01*
X105650960Y-125011909D01*
X105873000Y-124890624D01*
X105873000Y-123747000D01*
X106127000Y-123747000D01*
X106127000Y-124890624D01*
X106349040Y-125011909D01*
X106613881Y-124917070D01*
X106855131Y-124772385D01*
X107063519Y-124583414D01*
X107231037Y-124357420D01*
X107351246Y-124103087D01*
X107391904Y-123969039D01*
X107269915Y-123747000D01*
X106127000Y-123747000D01*
X105873000Y-123747000D01*
X104730085Y-123747000D01*
X104608096Y-123969039D01*
X99117489Y-123969039D01*
X99131252Y-123964157D01*
X99381355Y-123815178D01*
X99597588Y-123620269D01*
X99771641Y-123386920D01*
X99896825Y-123124099D01*
X99941476Y-122976890D01*
X99820155Y-122747000D01*
X98627000Y-122747000D01*
X98373000Y-122747000D01*
X97179845Y-122747000D01*
X97058524Y-122976890D01*
X96160000Y-122976890D01*
X96160000Y-109070000D01*
X97011928Y-109070000D01*
X97011928Y-110770000D01*
X97024188Y-110894482D01*
X97060498Y-111014180D01*
X97119463Y-111124494D01*
X97198815Y-111221185D01*
X97295506Y-111300537D01*
X97405820Y-111359502D01*
X97478380Y-111381513D01*
X97346525Y-111513368D01*
X97184010Y-111756589D01*
X97072068Y-112026842D01*
X97015000Y-112313740D01*
X97015000Y-112606260D01*
X97072068Y-112893158D01*
X97184010Y-113163411D01*
X97346525Y-113406632D01*
X97553368Y-113613475D01*
X97727760Y-113730000D01*
X97553368Y-113846525D01*
X97346525Y-114053368D01*
X97184010Y-114296589D01*
X97072068Y-114566842D01*
X97015000Y-114853740D01*
X97015000Y-115146260D01*
X97072068Y-115433158D01*
X97184010Y-115703411D01*
X97346525Y-115946632D01*
X97553368Y-116153475D01*
X97727760Y-116270000D01*
X97553368Y-116386525D01*
X97346525Y-116593368D01*
X97184010Y-116836589D01*
X97072068Y-117106842D01*
X97015000Y-117393740D01*
X97015000Y-117686260D01*
X97072068Y-117973158D01*
X97184010Y-118243411D01*
X97346525Y-118486632D01*
X97553368Y-118693475D01*
X97727760Y-118810000D01*
X97553368Y-118926525D01*
X97346525Y-119133368D01*
X97184010Y-119376589D01*
X97072068Y-119646842D01*
X97015000Y-119933740D01*
X97015000Y-120226260D01*
X97072068Y-120513158D01*
X97184010Y-120783411D01*
X97346525Y-121026632D01*
X97553368Y-121233475D01*
X97735534Y-121355195D01*
X97618645Y-121424822D01*
X97402412Y-121619731D01*
X97228359Y-121853080D01*
X97103175Y-122115901D01*
X97058524Y-122263110D01*
X97179845Y-122493000D01*
X98373000Y-122493000D01*
X98373000Y-122473000D01*
X98627000Y-122473000D01*
X98627000Y-122493000D01*
X99820155Y-122493000D01*
X99941476Y-122263110D01*
X99896825Y-122115901D01*
X99771641Y-121853080D01*
X99597588Y-121619731D01*
X99381355Y-121424822D01*
X99264466Y-121355195D01*
X99446632Y-121233475D01*
X99653475Y-121026632D01*
X99815990Y-120783411D01*
X99927932Y-120513158D01*
X99985000Y-120226260D01*
X99985000Y-119933740D01*
X99927932Y-119646842D01*
X99815990Y-119376589D01*
X99653475Y-119133368D01*
X99446632Y-118926525D01*
X99272240Y-118810000D01*
X99446632Y-118693475D01*
X99653475Y-118486632D01*
X99815990Y-118243411D01*
X99927932Y-117973158D01*
X99985000Y-117686260D01*
X99985000Y-117393740D01*
X99927932Y-117106842D01*
X99815990Y-116836589D01*
X99653475Y-116593368D01*
X99446632Y-116386525D01*
X99272240Y-116270000D01*
X99446632Y-116153475D01*
X99653475Y-115946632D01*
X99815990Y-115703411D01*
X99927932Y-115433158D01*
X99974310Y-115200000D01*
X104561928Y-115200000D01*
X104561928Y-116800000D01*
X104574188Y-116924482D01*
X104610498Y-117044180D01*
X104669463Y-117154494D01*
X104748815Y-117251185D01*
X104845506Y-117330537D01*
X104955820Y-117389502D01*
X105075518Y-117425812D01*
X105083961Y-117426643D01*
X104885363Y-117625241D01*
X104728320Y-117860273D01*
X104620147Y-118121426D01*
X104565000Y-118398665D01*
X104565000Y-118681335D01*
X104620147Y-118958574D01*
X104728320Y-119219727D01*
X104885363Y-119454759D01*
X105085241Y-119654637D01*
X105317759Y-119810000D01*
X105085241Y-119965363D01*
X104885363Y-120165241D01*
X104728320Y-120400273D01*
X104620147Y-120661426D01*
X104565000Y-120938665D01*
X104565000Y-121221335D01*
X104620147Y-121498574D01*
X104728320Y-121759727D01*
X104885363Y-121994759D01*
X105085241Y-122194637D01*
X105320273Y-122351680D01*
X105330865Y-122356067D01*
X105144869Y-122467615D01*
X104936481Y-122656586D01*
X104768963Y-122882580D01*
X104648754Y-123136913D01*
X104608096Y-123270961D01*
X104730085Y-123493000D01*
X105873000Y-123493000D01*
X105873000Y-123473000D01*
X106127000Y-123473000D01*
X106127000Y-123493000D01*
X107269915Y-123493000D01*
X107391904Y-123270961D01*
X107351246Y-123136913D01*
X107231037Y-122882580D01*
X107063519Y-122656586D01*
X106855131Y-122467615D01*
X106669135Y-122356067D01*
X106679727Y-122351680D01*
X106914759Y-122194637D01*
X107114637Y-121994759D01*
X107271680Y-121759727D01*
X107379853Y-121498574D01*
X107435000Y-121221335D01*
X107435000Y-120938665D01*
X107379853Y-120661426D01*
X107271680Y-120400273D01*
X107114637Y-120165241D01*
X106914759Y-119965363D01*
X106682241Y-119810000D01*
X106914759Y-119654637D01*
X107114637Y-119454759D01*
X107271680Y-119219727D01*
X107379853Y-118958574D01*
X107435000Y-118681335D01*
X107435000Y-118398665D01*
X107379853Y-118121426D01*
X107271680Y-117860273D01*
X107114637Y-117625241D01*
X106916039Y-117426643D01*
X106924482Y-117425812D01*
X107044180Y-117389502D01*
X107154494Y-117330537D01*
X107251185Y-117251185D01*
X107330537Y-117154494D01*
X107389502Y-117044180D01*
X107425812Y-116924482D01*
X107438072Y-116800000D01*
X107438072Y-115200000D01*
X107425812Y-115075518D01*
X107389502Y-114955820D01*
X107330537Y-114845506D01*
X107251185Y-114748815D01*
X107154494Y-114669463D01*
X107044180Y-114610498D01*
X106924482Y-114574188D01*
X106800000Y-114561928D01*
X105200000Y-114561928D01*
X105075518Y-114574188D01*
X104955820Y-114610498D01*
X104845506Y-114669463D01*
X104748815Y-114748815D01*
X104669463Y-114845506D01*
X104610498Y-114955820D01*
X104574188Y-115075518D01*
X104561928Y-115200000D01*
X99974310Y-115200000D01*
X99985000Y-115146260D01*
X99985000Y-114853740D01*
X99927932Y-114566842D01*
X99815990Y-114296589D01*
X99653475Y-114053368D01*
X99446632Y-113846525D01*
X99272240Y-113730000D01*
X99446632Y-113613475D01*
X99590107Y-113470000D01*
X114728362Y-113470000D01*
X114652367Y-113532367D01*
X114620744Y-113570901D01*
X113626645Y-114565000D01*
X113478665Y-114565000D01*
X113201426Y-114620147D01*
X112940273Y-114728320D01*
X112705241Y-114885363D01*
X112505363Y-115085241D01*
X112348320Y-115320273D01*
X112240147Y-115581426D01*
X112185000Y-115858665D01*
X112185000Y-116141335D01*
X112240147Y-116418574D01*
X112348320Y-116679727D01*
X112505363Y-116914759D01*
X112705241Y-117114637D01*
X112937759Y-117270000D01*
X112705241Y-117425363D01*
X112505363Y-117625241D01*
X112348320Y-117860273D01*
X112240147Y-118121426D01*
X112185000Y-118398665D01*
X112185000Y-118681335D01*
X112240147Y-118958574D01*
X112348320Y-119219727D01*
X112505363Y-119454759D01*
X112705241Y-119654637D01*
X112937759Y-119810000D01*
X112705241Y-119965363D01*
X112505363Y-120165241D01*
X112348320Y-120400273D01*
X112240147Y-120661426D01*
X112185000Y-120938665D01*
X112185000Y-121221335D01*
X112240147Y-121498574D01*
X112348320Y-121759727D01*
X112505363Y-121994759D01*
X112705241Y-122194637D01*
X112937759Y-122350000D01*
X112705241Y-122505363D01*
X112505363Y-122705241D01*
X112348320Y-122940273D01*
X112240147Y-123201426D01*
X112185000Y-123478665D01*
X112185000Y-123761335D01*
X112240147Y-124038574D01*
X112348320Y-124299727D01*
X112505363Y-124534759D01*
X112705241Y-124734637D01*
X112940273Y-124891680D01*
X113201426Y-124999853D01*
X113478665Y-125055000D01*
X113761335Y-125055000D01*
X114038574Y-124999853D01*
X114299727Y-124891680D01*
X114534759Y-124734637D01*
X114734637Y-124534759D01*
X114891680Y-124299727D01*
X114999853Y-124038574D01*
X115013684Y-123969039D01*
X116608096Y-123969039D01*
X116648754Y-124103087D01*
X116768963Y-124357420D01*
X116936481Y-124583414D01*
X117144869Y-124772385D01*
X117386119Y-124917070D01*
X117650960Y-125011909D01*
X117873000Y-124890624D01*
X117873000Y-123747000D01*
X118127000Y-123747000D01*
X118127000Y-124890624D01*
X118349040Y-125011909D01*
X118613881Y-124917070D01*
X118855131Y-124772385D01*
X119063519Y-124583414D01*
X119231037Y-124357420D01*
X119351246Y-124103087D01*
X119391904Y-123969039D01*
X119269915Y-123747000D01*
X118127000Y-123747000D01*
X117873000Y-123747000D01*
X116730085Y-123747000D01*
X116608096Y-123969039D01*
X115013684Y-123969039D01*
X115055000Y-123761335D01*
X115055000Y-123478665D01*
X114999853Y-123201426D01*
X114891680Y-122940273D01*
X114734637Y-122705241D01*
X114534759Y-122505363D01*
X114302241Y-122350000D01*
X114534759Y-122194637D01*
X114734637Y-121994759D01*
X114891680Y-121759727D01*
X114999853Y-121498574D01*
X115055000Y-121221335D01*
X115055000Y-120938665D01*
X114999853Y-120661426D01*
X114891680Y-120400273D01*
X114734637Y-120165241D01*
X114534759Y-119965363D01*
X114302241Y-119810000D01*
X114534759Y-119654637D01*
X114734637Y-119454759D01*
X114891680Y-119219727D01*
X114999853Y-118958574D01*
X115055000Y-118681335D01*
X115055000Y-118398665D01*
X114999853Y-118121426D01*
X114891680Y-117860273D01*
X114734637Y-117625241D01*
X114534759Y-117425363D01*
X114302241Y-117270000D01*
X114534759Y-117114637D01*
X114734637Y-116914759D01*
X114891680Y-116679727D01*
X114999853Y-116418574D01*
X115055000Y-116141335D01*
X115055000Y-115993355D01*
X115788356Y-115260000D01*
X116561928Y-115260000D01*
X116561928Y-116800000D01*
X116574188Y-116924482D01*
X116610498Y-117044180D01*
X116669463Y-117154494D01*
X116748815Y-117251185D01*
X116845506Y-117330537D01*
X116955820Y-117389502D01*
X117075518Y-117425812D01*
X117083961Y-117426643D01*
X116885363Y-117625241D01*
X116728320Y-117860273D01*
X116620147Y-118121426D01*
X116565000Y-118398665D01*
X116565000Y-118681335D01*
X116620147Y-118958574D01*
X116728320Y-119219727D01*
X116885363Y-119454759D01*
X117085241Y-119654637D01*
X117317759Y-119810000D01*
X117085241Y-119965363D01*
X116885363Y-120165241D01*
X116728320Y-120400273D01*
X116620147Y-120661426D01*
X116565000Y-120938665D01*
X116565000Y-121221335D01*
X116620147Y-121498574D01*
X116728320Y-121759727D01*
X116885363Y-121994759D01*
X117085241Y-122194637D01*
X117320273Y-122351680D01*
X117330865Y-122356067D01*
X117144869Y-122467615D01*
X116936481Y-122656586D01*
X116768963Y-122882580D01*
X116648754Y-123136913D01*
X116608096Y-123270961D01*
X116730085Y-123493000D01*
X117873000Y-123493000D01*
X117873000Y-123473000D01*
X118127000Y-123473000D01*
X118127000Y-123493000D01*
X119269915Y-123493000D01*
X119391904Y-123270961D01*
X119351246Y-123136913D01*
X119231037Y-122882580D01*
X119063519Y-122656586D01*
X118855131Y-122467615D01*
X118669135Y-122356067D01*
X118679727Y-122351680D01*
X118914759Y-122194637D01*
X119114637Y-121994759D01*
X119271680Y-121759727D01*
X119379853Y-121498574D01*
X119435000Y-121221335D01*
X119435000Y-120938665D01*
X119379853Y-120661426D01*
X119271680Y-120400273D01*
X119114637Y-120165241D01*
X118914759Y-119965363D01*
X118682241Y-119810000D01*
X118914759Y-119654637D01*
X119114637Y-119454759D01*
X119271680Y-119219727D01*
X119379853Y-118958574D01*
X119435000Y-118681335D01*
X119435000Y-118398665D01*
X119379853Y-118121426D01*
X119271680Y-117860273D01*
X119114637Y-117625241D01*
X118916039Y-117426643D01*
X118924482Y-117425812D01*
X119044180Y-117389502D01*
X119154494Y-117330537D01*
X119251185Y-117251185D01*
X119330537Y-117154494D01*
X119389502Y-117044180D01*
X119425812Y-116924482D01*
X119438072Y-116800000D01*
X119438072Y-115260000D01*
X123451645Y-115260000D01*
X124185000Y-115993356D01*
X124185000Y-116141335D01*
X124240147Y-116418574D01*
X124348320Y-116679727D01*
X124505363Y-116914759D01*
X124705241Y-117114637D01*
X124937759Y-117270000D01*
X124705241Y-117425363D01*
X124505363Y-117625241D01*
X124348320Y-117860273D01*
X124240147Y-118121426D01*
X124185000Y-118398665D01*
X124185000Y-118681335D01*
X124240147Y-118958574D01*
X124348320Y-119219727D01*
X124505363Y-119454759D01*
X124705241Y-119654637D01*
X124937759Y-119810000D01*
X124705241Y-119965363D01*
X124505363Y-120165241D01*
X124348320Y-120400273D01*
X124240147Y-120661426D01*
X124185000Y-120938665D01*
X124185000Y-121221335D01*
X124240147Y-121498574D01*
X124348320Y-121759727D01*
X124505363Y-121994759D01*
X124705241Y-122194637D01*
X124937759Y-122350000D01*
X124705241Y-122505363D01*
X124505363Y-122705241D01*
X124348320Y-122940273D01*
X124240147Y-123201426D01*
X124185000Y-123478665D01*
X124185000Y-123761335D01*
X124240147Y-124038574D01*
X124348320Y-124299727D01*
X124505363Y-124534759D01*
X124705241Y-124734637D01*
X124940273Y-124891680D01*
X125201426Y-124999853D01*
X125478665Y-125055000D01*
X125761335Y-125055000D01*
X126038574Y-124999853D01*
X126299727Y-124891680D01*
X126534759Y-124734637D01*
X126734637Y-124534759D01*
X126891680Y-124299727D01*
X126999853Y-124038574D01*
X127055000Y-123761335D01*
X127055000Y-123478665D01*
X128565000Y-123478665D01*
X128565000Y-123761335D01*
X128620147Y-124038574D01*
X128728320Y-124299727D01*
X128885363Y-124534759D01*
X129085241Y-124734637D01*
X129320273Y-124891680D01*
X129581426Y-124999853D01*
X129858665Y-125055000D01*
X130141335Y-125055000D01*
X130418574Y-124999853D01*
X130679727Y-124891680D01*
X130914759Y-124734637D01*
X131114637Y-124534759D01*
X131271680Y-124299727D01*
X131379853Y-124038574D01*
X131435000Y-123761335D01*
X131435000Y-123478665D01*
X133565000Y-123478665D01*
X133565000Y-123761335D01*
X133620147Y-124038574D01*
X133728320Y-124299727D01*
X133885363Y-124534759D01*
X134085241Y-124734637D01*
X134320273Y-124891680D01*
X134581426Y-124999853D01*
X134858665Y-125055000D01*
X135141335Y-125055000D01*
X135418574Y-124999853D01*
X135679727Y-124891680D01*
X135914759Y-124734637D01*
X136114637Y-124534759D01*
X136271680Y-124299727D01*
X136379853Y-124038574D01*
X136435000Y-123761335D01*
X136435000Y-123478665D01*
X136379853Y-123201426D01*
X136271680Y-122940273D01*
X136114637Y-122705241D01*
X135914759Y-122505363D01*
X135679727Y-122348320D01*
X135418574Y-122240147D01*
X135141335Y-122185000D01*
X134858665Y-122185000D01*
X134581426Y-122240147D01*
X134320273Y-122348320D01*
X134085241Y-122505363D01*
X133885363Y-122705241D01*
X133728320Y-122940273D01*
X133620147Y-123201426D01*
X133565000Y-123478665D01*
X131435000Y-123478665D01*
X131379853Y-123201426D01*
X131271680Y-122940273D01*
X131114637Y-122705241D01*
X130914759Y-122505363D01*
X130679727Y-122348320D01*
X130418574Y-122240147D01*
X130141335Y-122185000D01*
X129858665Y-122185000D01*
X129581426Y-122240147D01*
X129320273Y-122348320D01*
X129085241Y-122505363D01*
X128885363Y-122705241D01*
X128728320Y-122940273D01*
X128620147Y-123201426D01*
X128565000Y-123478665D01*
X127055000Y-123478665D01*
X126999853Y-123201426D01*
X126891680Y-122940273D01*
X126734637Y-122705241D01*
X126534759Y-122505363D01*
X126302241Y-122350000D01*
X126534759Y-122194637D01*
X126734637Y-121994759D01*
X126891680Y-121759727D01*
X126999853Y-121498574D01*
X127055000Y-121221335D01*
X127055000Y-120938665D01*
X127039087Y-120858665D01*
X138065000Y-120858665D01*
X138065000Y-121141335D01*
X138120147Y-121418574D01*
X138228320Y-121679727D01*
X138385363Y-121914759D01*
X138585241Y-122114637D01*
X138820273Y-122271680D01*
X139081426Y-122379853D01*
X139358665Y-122435000D01*
X139641335Y-122435000D01*
X139918574Y-122379853D01*
X140179727Y-122271680D01*
X140414759Y-122114637D01*
X140614637Y-121914759D01*
X140771680Y-121679727D01*
X140879853Y-121418574D01*
X140935000Y-121141335D01*
X140935000Y-120858665D01*
X145685000Y-120858665D01*
X145685000Y-121141335D01*
X145740147Y-121418574D01*
X145848320Y-121679727D01*
X146005363Y-121914759D01*
X146205241Y-122114637D01*
X146440273Y-122271680D01*
X146701426Y-122379853D01*
X146978665Y-122435000D01*
X147261335Y-122435000D01*
X147538574Y-122379853D01*
X147799727Y-122271680D01*
X148034759Y-122114637D01*
X148234637Y-121914759D01*
X148391680Y-121679727D01*
X148499853Y-121418574D01*
X148555000Y-121141335D01*
X148555000Y-120858665D01*
X148499853Y-120581426D01*
X148391680Y-120320273D01*
X148234637Y-120085241D01*
X148034759Y-119885363D01*
X147799727Y-119728320D01*
X147731357Y-119700000D01*
X154561928Y-119700000D01*
X154561928Y-121300000D01*
X154574188Y-121424482D01*
X154610498Y-121544180D01*
X154669463Y-121654494D01*
X154748815Y-121751185D01*
X154765393Y-121764790D01*
X154728320Y-121820273D01*
X154620147Y-122081426D01*
X154565000Y-122358665D01*
X154565000Y-122641335D01*
X154620147Y-122918574D01*
X154728320Y-123179727D01*
X154885363Y-123414759D01*
X155085241Y-123614637D01*
X155320273Y-123771680D01*
X155581426Y-123879853D01*
X155858665Y-123935000D01*
X156141335Y-123935000D01*
X156418574Y-123879853D01*
X156679727Y-123771680D01*
X156914759Y-123614637D01*
X157114637Y-123414759D01*
X157271680Y-123179727D01*
X157379853Y-122918574D01*
X157435000Y-122641335D01*
X157435000Y-122358665D01*
X157379853Y-122081426D01*
X157271680Y-121820273D01*
X157234607Y-121764790D01*
X157251185Y-121751185D01*
X157330537Y-121654494D01*
X157389502Y-121544180D01*
X157425812Y-121424482D01*
X157438072Y-121300000D01*
X157438072Y-119700000D01*
X157425812Y-119575518D01*
X157389502Y-119455820D01*
X157330537Y-119345506D01*
X157251185Y-119248815D01*
X157154494Y-119169463D01*
X157044180Y-119110498D01*
X156924482Y-119074188D01*
X156800000Y-119061928D01*
X155200000Y-119061928D01*
X155075518Y-119074188D01*
X154955820Y-119110498D01*
X154845506Y-119169463D01*
X154748815Y-119248815D01*
X154669463Y-119345506D01*
X154610498Y-119455820D01*
X154574188Y-119575518D01*
X154561928Y-119700000D01*
X147731357Y-119700000D01*
X147538574Y-119620147D01*
X147261335Y-119565000D01*
X146978665Y-119565000D01*
X146701426Y-119620147D01*
X146440273Y-119728320D01*
X146205241Y-119885363D01*
X146005363Y-120085241D01*
X145848320Y-120320273D01*
X145740147Y-120581426D01*
X145685000Y-120858665D01*
X140935000Y-120858665D01*
X140879853Y-120581426D01*
X140771680Y-120320273D01*
X140614637Y-120085241D01*
X140414759Y-119885363D01*
X140179727Y-119728320D01*
X139918574Y-119620147D01*
X139641335Y-119565000D01*
X139358665Y-119565000D01*
X139081426Y-119620147D01*
X138820273Y-119728320D01*
X138585241Y-119885363D01*
X138385363Y-120085241D01*
X138228320Y-120320273D01*
X138120147Y-120581426D01*
X138065000Y-120858665D01*
X127039087Y-120858665D01*
X126999853Y-120661426D01*
X126891680Y-120400273D01*
X126734637Y-120165241D01*
X126534759Y-119965363D01*
X126302241Y-119810000D01*
X126534759Y-119654637D01*
X126734637Y-119454759D01*
X126891680Y-119219727D01*
X126999853Y-118958574D01*
X127055000Y-118681335D01*
X127055000Y-118398665D01*
X126999853Y-118121426D01*
X126891680Y-117860273D01*
X126734637Y-117625241D01*
X126534759Y-117425363D01*
X126302241Y-117270000D01*
X126534759Y-117114637D01*
X126734637Y-116914759D01*
X126891680Y-116679727D01*
X126999853Y-116418574D01*
X127013684Y-116349040D01*
X128608091Y-116349040D01*
X128702930Y-116613881D01*
X128847615Y-116855131D01*
X129036586Y-117063519D01*
X129262580Y-117231037D01*
X129516913Y-117351246D01*
X129650961Y-117391904D01*
X129873000Y-117269915D01*
X129873000Y-116127000D01*
X130127000Y-116127000D01*
X130127000Y-117269915D01*
X130349039Y-117391904D01*
X130483087Y-117351246D01*
X130737420Y-117231037D01*
X130963414Y-117063519D01*
X131152385Y-116855131D01*
X131297070Y-116613881D01*
X131391909Y-116349040D01*
X131270624Y-116127000D01*
X130127000Y-116127000D01*
X129873000Y-116127000D01*
X128729376Y-116127000D01*
X128608091Y-116349040D01*
X127013684Y-116349040D01*
X127055000Y-116141335D01*
X127055000Y-115858665D01*
X127013685Y-115650960D01*
X128608091Y-115650960D01*
X128729376Y-115873000D01*
X129873000Y-115873000D01*
X129873000Y-114730085D01*
X130127000Y-114730085D01*
X130127000Y-115873000D01*
X131270624Y-115873000D01*
X131278454Y-115858665D01*
X133565000Y-115858665D01*
X133565000Y-116141335D01*
X133620147Y-116418574D01*
X133728320Y-116679727D01*
X133885363Y-116914759D01*
X134085241Y-117114637D01*
X134320273Y-117271680D01*
X134581426Y-117379853D01*
X134858665Y-117435000D01*
X135141335Y-117435000D01*
X135418574Y-117379853D01*
X135679727Y-117271680D01*
X135914759Y-117114637D01*
X136114637Y-116914759D01*
X136271680Y-116679727D01*
X136379853Y-116418574D01*
X136435000Y-116141335D01*
X136435000Y-115858665D01*
X138065000Y-115858665D01*
X138065000Y-116141335D01*
X138120147Y-116418574D01*
X138228320Y-116679727D01*
X138385363Y-116914759D01*
X138585241Y-117114637D01*
X138820273Y-117271680D01*
X139081426Y-117379853D01*
X139358665Y-117435000D01*
X139641335Y-117435000D01*
X139918574Y-117379853D01*
X140179727Y-117271680D01*
X140414759Y-117114637D01*
X140614637Y-116914759D01*
X140771680Y-116679727D01*
X140879853Y-116418574D01*
X140935000Y-116141335D01*
X140935000Y-115858665D01*
X145685000Y-115858665D01*
X145685000Y-116141335D01*
X145740147Y-116418574D01*
X145848320Y-116679727D01*
X146005363Y-116914759D01*
X146205241Y-117114637D01*
X146440273Y-117271680D01*
X146701426Y-117379853D01*
X146978665Y-117435000D01*
X147261335Y-117435000D01*
X147538574Y-117379853D01*
X147799727Y-117271680D01*
X148034759Y-117114637D01*
X148234637Y-116914759D01*
X148391680Y-116679727D01*
X148499853Y-116418574D01*
X148555000Y-116141335D01*
X148555000Y-115858665D01*
X148499853Y-115581426D01*
X148391680Y-115320273D01*
X148234637Y-115085241D01*
X148034759Y-114885363D01*
X147799727Y-114728320D01*
X147538574Y-114620147D01*
X147261335Y-114565000D01*
X146978665Y-114565000D01*
X146701426Y-114620147D01*
X146440273Y-114728320D01*
X146205241Y-114885363D01*
X146005363Y-115085241D01*
X145848320Y-115320273D01*
X145740147Y-115581426D01*
X145685000Y-115858665D01*
X140935000Y-115858665D01*
X140879853Y-115581426D01*
X140771680Y-115320273D01*
X140614637Y-115085241D01*
X140414759Y-114885363D01*
X140179727Y-114728320D01*
X139918574Y-114620147D01*
X139641335Y-114565000D01*
X139358665Y-114565000D01*
X139081426Y-114620147D01*
X138820273Y-114728320D01*
X138585241Y-114885363D01*
X138385363Y-115085241D01*
X138228320Y-115320273D01*
X138120147Y-115581426D01*
X138065000Y-115858665D01*
X136435000Y-115858665D01*
X136379853Y-115581426D01*
X136271680Y-115320273D01*
X136114637Y-115085241D01*
X135914759Y-114885363D01*
X135679727Y-114728320D01*
X135418574Y-114620147D01*
X135141335Y-114565000D01*
X134858665Y-114565000D01*
X134581426Y-114620147D01*
X134320273Y-114728320D01*
X134085241Y-114885363D01*
X133885363Y-115085241D01*
X133728320Y-115320273D01*
X133620147Y-115581426D01*
X133565000Y-115858665D01*
X131278454Y-115858665D01*
X131391909Y-115650960D01*
X131297070Y-115386119D01*
X131152385Y-115144869D01*
X130963414Y-114936481D01*
X130737420Y-114768963D01*
X130483087Y-114648754D01*
X130349039Y-114608096D01*
X130127000Y-114730085D01*
X129873000Y-114730085D01*
X129650961Y-114608096D01*
X129516913Y-114648754D01*
X129262580Y-114768963D01*
X129036586Y-114936481D01*
X128847615Y-115144869D01*
X128702930Y-115386119D01*
X128608091Y-115650960D01*
X127013685Y-115650960D01*
X126999853Y-115581426D01*
X126891680Y-115320273D01*
X126734637Y-115085241D01*
X126534759Y-114885363D01*
X126299727Y-114728320D01*
X126038574Y-114620147D01*
X125761335Y-114565000D01*
X125613356Y-114565000D01*
X124619261Y-113570906D01*
X124587633Y-113532367D01*
X124433840Y-113406153D01*
X124258380Y-113312368D01*
X124137966Y-113275841D01*
X124257633Y-113177633D01*
X124289261Y-113139094D01*
X124847355Y-112581000D01*
X156672928Y-112581000D01*
X156672928Y-113959000D01*
X156685188Y-114083482D01*
X156721498Y-114203180D01*
X156780463Y-114313494D01*
X156859815Y-114410185D01*
X156956506Y-114489537D01*
X157066820Y-114548502D01*
X157186518Y-114584812D01*
X157311000Y-114597072D01*
X158689000Y-114597072D01*
X158813482Y-114584812D01*
X158933180Y-114548502D01*
X159043494Y-114489537D01*
X159140185Y-114410185D01*
X159219537Y-114313494D01*
X159278502Y-114203180D01*
X159314812Y-114083482D01*
X159327072Y-113959000D01*
X159327072Y-112581000D01*
X159314812Y-112456518D01*
X159278502Y-112336820D01*
X159219537Y-112226506D01*
X159140185Y-112129815D01*
X159043494Y-112050463D01*
X158933180Y-111991498D01*
X158813482Y-111955188D01*
X158689000Y-111942928D01*
X158538151Y-111942928D01*
X158577522Y-111928518D01*
X158675677Y-111876054D01*
X158733802Y-111643407D01*
X158000000Y-110909605D01*
X157266198Y-111643407D01*
X157324323Y-111876054D01*
X157468409Y-111942928D01*
X157311000Y-111942928D01*
X157186518Y-111955188D01*
X157066820Y-111991498D01*
X156956506Y-112050463D01*
X156859815Y-112129815D01*
X156780463Y-112226506D01*
X156721498Y-112336820D01*
X156685188Y-112456518D01*
X156672928Y-112581000D01*
X124847355Y-112581000D01*
X125493356Y-111935000D01*
X125641335Y-111935000D01*
X125918574Y-111879853D01*
X126179727Y-111771680D01*
X126414759Y-111614637D01*
X126614637Y-111414759D01*
X126771680Y-111179727D01*
X126879853Y-110918574D01*
X126935000Y-110641335D01*
X126935000Y-110358665D01*
X126879853Y-110081426D01*
X126771680Y-109820273D01*
X126657908Y-109650000D01*
X128511928Y-109650000D01*
X128511928Y-111350000D01*
X128524188Y-111474482D01*
X128560498Y-111594180D01*
X128619463Y-111704494D01*
X128698815Y-111801185D01*
X128795506Y-111880537D01*
X128905820Y-111939502D01*
X129025518Y-111975812D01*
X129150000Y-111988072D01*
X130850000Y-111988072D01*
X130974482Y-111975812D01*
X131094180Y-111939502D01*
X131204494Y-111880537D01*
X131301185Y-111801185D01*
X131380537Y-111704494D01*
X131439502Y-111594180D01*
X131461513Y-111521620D01*
X131593368Y-111653475D01*
X131836589Y-111815990D01*
X132106842Y-111927932D01*
X132393740Y-111985000D01*
X132686260Y-111985000D01*
X132973158Y-111927932D01*
X133243411Y-111815990D01*
X133486632Y-111653475D01*
X133693475Y-111446632D01*
X133810000Y-111272240D01*
X133926525Y-111446632D01*
X134133368Y-111653475D01*
X134376589Y-111815990D01*
X134646842Y-111927932D01*
X134933740Y-111985000D01*
X135226260Y-111985000D01*
X135513158Y-111927932D01*
X135783411Y-111815990D01*
X136026632Y-111653475D01*
X136233475Y-111446632D01*
X136395990Y-111203411D01*
X136507932Y-110933158D01*
X136565000Y-110646260D01*
X136565000Y-110358665D01*
X139065000Y-110358665D01*
X139065000Y-110641335D01*
X139120147Y-110918574D01*
X139228320Y-111179727D01*
X139385363Y-111414759D01*
X139585241Y-111614637D01*
X139820273Y-111771680D01*
X140081426Y-111879853D01*
X140358665Y-111935000D01*
X140641335Y-111935000D01*
X140918574Y-111879853D01*
X141179727Y-111771680D01*
X141414759Y-111614637D01*
X141536694Y-111492702D01*
X144686903Y-111492702D01*
X144758486Y-111736671D01*
X145013996Y-111857571D01*
X145288184Y-111926300D01*
X145570512Y-111940217D01*
X145850130Y-111898787D01*
X146116292Y-111803603D01*
X146241514Y-111736671D01*
X146313097Y-111492702D01*
X145500000Y-110679605D01*
X144686903Y-111492702D01*
X141536694Y-111492702D01*
X141614637Y-111414759D01*
X141771680Y-111179727D01*
X141879853Y-110918574D01*
X141935000Y-110641335D01*
X141935000Y-110570512D01*
X144059783Y-110570512D01*
X144101213Y-110850130D01*
X144196397Y-111116292D01*
X144263329Y-111241514D01*
X144507298Y-111313097D01*
X145320395Y-110500000D01*
X145679605Y-110500000D01*
X146492702Y-111313097D01*
X146736671Y-111241514D01*
X146857571Y-110986004D01*
X146902965Y-110804908D01*
X156671706Y-110804908D01*
X156711842Y-111062606D01*
X156801482Y-111307522D01*
X156853946Y-111405677D01*
X157086593Y-111463802D01*
X157820395Y-110730000D01*
X158179605Y-110730000D01*
X158913407Y-111463802D01*
X159146054Y-111405677D01*
X159255851Y-111169110D01*
X159317386Y-110915669D01*
X159328294Y-110655092D01*
X159288158Y-110397394D01*
X159198518Y-110152478D01*
X159146054Y-110054323D01*
X158913407Y-109996198D01*
X158179605Y-110730000D01*
X157820395Y-110730000D01*
X157086593Y-109996198D01*
X156853946Y-110054323D01*
X156744149Y-110290890D01*
X156682614Y-110544331D01*
X156671706Y-110804908D01*
X146902965Y-110804908D01*
X146926300Y-110711816D01*
X146940217Y-110429488D01*
X146898787Y-110149870D01*
X146803603Y-109883708D01*
X146767730Y-109816593D01*
X157266198Y-109816593D01*
X158000000Y-110550395D01*
X158733802Y-109816593D01*
X158675677Y-109583946D01*
X158439110Y-109474149D01*
X158185669Y-109412614D01*
X157925092Y-109401706D01*
X157667394Y-109441842D01*
X157422478Y-109531482D01*
X157324323Y-109583946D01*
X157266198Y-109816593D01*
X146767730Y-109816593D01*
X146736671Y-109758486D01*
X146492702Y-109686903D01*
X145679605Y-110500000D01*
X145320395Y-110500000D01*
X144507298Y-109686903D01*
X144263329Y-109758486D01*
X144142429Y-110013996D01*
X144073700Y-110288184D01*
X144059783Y-110570512D01*
X141935000Y-110570512D01*
X141935000Y-110358665D01*
X141879853Y-110081426D01*
X141771680Y-109820273D01*
X141614637Y-109585241D01*
X141536694Y-109507298D01*
X144686903Y-109507298D01*
X145500000Y-110320395D01*
X146313097Y-109507298D01*
X146241514Y-109263329D01*
X145986004Y-109142429D01*
X145711816Y-109073700D01*
X145429488Y-109059783D01*
X145149870Y-109101213D01*
X144883708Y-109196397D01*
X144758486Y-109263329D01*
X144686903Y-109507298D01*
X141536694Y-109507298D01*
X141414759Y-109385363D01*
X141179727Y-109228320D01*
X140918574Y-109120147D01*
X140641335Y-109065000D01*
X140358665Y-109065000D01*
X140081426Y-109120147D01*
X139820273Y-109228320D01*
X139585241Y-109385363D01*
X139385363Y-109585241D01*
X139228320Y-109820273D01*
X139120147Y-110081426D01*
X139065000Y-110358665D01*
X136565000Y-110358665D01*
X136565000Y-110353740D01*
X136507932Y-110066842D01*
X136395990Y-109796589D01*
X136233475Y-109553368D01*
X136026632Y-109346525D01*
X135783411Y-109184010D01*
X135513158Y-109072068D01*
X135226260Y-109015000D01*
X134933740Y-109015000D01*
X134646842Y-109072068D01*
X134376589Y-109184010D01*
X134133368Y-109346525D01*
X133926525Y-109553368D01*
X133810000Y-109727760D01*
X133693475Y-109553368D01*
X133486632Y-109346525D01*
X133243411Y-109184010D01*
X132973158Y-109072068D01*
X132686260Y-109015000D01*
X132393740Y-109015000D01*
X132106842Y-109072068D01*
X131836589Y-109184010D01*
X131593368Y-109346525D01*
X131461513Y-109478380D01*
X131439502Y-109405820D01*
X131380537Y-109295506D01*
X131301185Y-109198815D01*
X131204494Y-109119463D01*
X131094180Y-109060498D01*
X130974482Y-109024188D01*
X130850000Y-109011928D01*
X129150000Y-109011928D01*
X129025518Y-109024188D01*
X128905820Y-109060498D01*
X128795506Y-109119463D01*
X128698815Y-109198815D01*
X128619463Y-109295506D01*
X128560498Y-109405820D01*
X128524188Y-109525518D01*
X128511928Y-109650000D01*
X126657908Y-109650000D01*
X126614637Y-109585241D01*
X126414759Y-109385363D01*
X126179727Y-109228320D01*
X125918574Y-109120147D01*
X125641335Y-109065000D01*
X125358665Y-109065000D01*
X125081426Y-109120147D01*
X124820273Y-109228320D01*
X124585241Y-109385363D01*
X124385363Y-109585241D01*
X124228320Y-109820273D01*
X124120147Y-110081426D01*
X124065000Y-110358665D01*
X124065000Y-110506644D01*
X123121645Y-111450000D01*
X118959396Y-111450000D01*
X118994637Y-111414759D01*
X119151680Y-111179727D01*
X119259853Y-110918574D01*
X119315000Y-110641335D01*
X119315000Y-110358665D01*
X119259853Y-110081426D01*
X119151680Y-109820273D01*
X118994637Y-109585241D01*
X118794759Y-109385363D01*
X118559727Y-109228320D01*
X118298574Y-109120147D01*
X118021335Y-109065000D01*
X117738665Y-109065000D01*
X117461426Y-109120147D01*
X117200273Y-109228320D01*
X116965241Y-109385363D01*
X116765363Y-109585241D01*
X116608320Y-109820273D01*
X116500147Y-110081426D01*
X116445000Y-110358665D01*
X116445000Y-110641335D01*
X116500147Y-110918574D01*
X116608320Y-111179727D01*
X116765363Y-111414759D01*
X116800604Y-111450000D01*
X113329396Y-111450000D01*
X113364637Y-111414759D01*
X113521680Y-111179727D01*
X113629853Y-110918574D01*
X113685000Y-110641335D01*
X113685000Y-110358665D01*
X113629853Y-110081426D01*
X113521680Y-109820273D01*
X113364637Y-109585241D01*
X113164759Y-109385363D01*
X112929727Y-109228320D01*
X112668574Y-109120147D01*
X112391335Y-109065000D01*
X112108665Y-109065000D01*
X111831426Y-109120147D01*
X111570273Y-109228320D01*
X111335241Y-109385363D01*
X111135363Y-109585241D01*
X110978320Y-109820273D01*
X110870147Y-110081426D01*
X110815000Y-110358665D01*
X110815000Y-110641335D01*
X110870147Y-110918574D01*
X110978320Y-111179727D01*
X111135363Y-111414759D01*
X111170604Y-111450000D01*
X108338347Y-111450000D01*
X108358977Y-111429370D01*
X108242704Y-111313097D01*
X108486671Y-111241514D01*
X108607571Y-110986004D01*
X108676300Y-110711816D01*
X108690217Y-110429488D01*
X108648787Y-110149870D01*
X108553603Y-109883708D01*
X108486671Y-109758486D01*
X108242702Y-109686903D01*
X107429605Y-110500000D01*
X107443748Y-110514143D01*
X107264143Y-110693748D01*
X107250000Y-110679605D01*
X107235858Y-110693748D01*
X107056253Y-110514143D01*
X107070395Y-110500000D01*
X106257298Y-109686903D01*
X106013329Y-109758486D01*
X105892429Y-110013996D01*
X105823700Y-110288184D01*
X105809783Y-110570512D01*
X105851213Y-110850130D01*
X105946397Y-111116292D01*
X106013329Y-111241514D01*
X106257296Y-111313097D01*
X106141023Y-111429370D01*
X106161653Y-111450000D01*
X99590107Y-111450000D01*
X99521620Y-111381513D01*
X99594180Y-111359502D01*
X99704494Y-111300537D01*
X99801185Y-111221185D01*
X99880537Y-111124494D01*
X99939502Y-111014180D01*
X99975812Y-110894482D01*
X99988072Y-110770000D01*
X99988072Y-109507298D01*
X106436903Y-109507298D01*
X107250000Y-110320395D01*
X108063097Y-109507298D01*
X107991514Y-109263329D01*
X107736004Y-109142429D01*
X107461816Y-109073700D01*
X107179488Y-109059783D01*
X106899870Y-109101213D01*
X106633708Y-109196397D01*
X106508486Y-109263329D01*
X106436903Y-109507298D01*
X99988072Y-109507298D01*
X99988072Y-109070000D01*
X99975812Y-108945518D01*
X99939502Y-108825820D01*
X99880537Y-108715506D01*
X99801185Y-108618815D01*
X99704494Y-108539463D01*
X99594180Y-108480498D01*
X99474482Y-108444188D01*
X99350000Y-108431928D01*
X97650000Y-108431928D01*
X97525518Y-108444188D01*
X97405820Y-108480498D01*
X97295506Y-108539463D01*
X97198815Y-108618815D01*
X97119463Y-108715506D01*
X97060498Y-108825820D01*
X97024188Y-108945518D01*
X97011928Y-109070000D01*
X96160000Y-109070000D01*
X96160000Y-109032279D01*
X96207670Y-108546107D01*
X96339489Y-108109502D01*
X96553600Y-107706815D01*
X96841848Y-107353388D01*
X97193261Y-107062673D01*
X97594439Y-106845758D01*
X98030113Y-106710894D01*
X98514344Y-106660000D01*
X159967721Y-106660000D01*
X160453893Y-106707670D01*
G37*
G04 #@! TD.AperFunction*
M02*
