M48
; DRILL file {KiCad (5.1.10)-1} date 03/26/22 09:57:57
; FORMAT={-:-/ absolute / metric / decimal}
; #@! TF.CreationDate,2022-03-26T09:57:57-04:00
; #@! TF.GenerationSoftware,Kicad,Pcbnew,(5.1.10)-1
; #@! TF.FileFunction,Plated,1,2,PTH
FMAT,2
METRIC
T1C0.800
T2C0.870
T3C1.000
%
G90
G05
T1
X106.0Y-116.0
X106.0Y-118.54
X106.0Y-121.08
X106.0Y-123.62
X107.25Y-110.5
X112.25Y-110.5
X113.62Y-116.0
X113.62Y-118.54
X113.62Y-121.08
X113.62Y-123.62
X117.88Y-110.5
X118.0Y-116.0
X118.0Y-118.54
X118.0Y-121.08
X118.0Y-123.62
X125.5Y-110.5
X125.62Y-116.0
X125.62Y-118.54
X125.62Y-121.08
X125.62Y-123.62
X130.0Y-116.0
X130.0Y-123.62
X135.0Y-116.0
X135.0Y-123.62
X139.5Y-116.0
X139.5Y-121.0
X140.5Y-110.5
X145.5Y-110.5
X147.12Y-116.0
X147.12Y-121.0
X156.0Y-120.5
X156.0Y-122.5
T2
X158.0Y-110.73
X158.0Y-113.27
T3
X98.5Y-109.92
X98.5Y-112.46
X98.5Y-115.0
X98.5Y-117.54
X98.5Y-120.08
X98.5Y-122.62
X130.0Y-110.5
X132.54Y-110.5
X135.08Y-110.5
T0
M30
